<svg width="24" height="24" viewBox="0 0 24 24" fill="none" xmlns="http://www.w3.org/2000/svg">
<path fill-rule="evenodd" clip-rule="evenodd" d="M3.45318 2.60045C3.57763 2.60561 3.70937 2.61423 3.84631 2.62555C4.17141 2.65241 4.5031 2.69234 4.81038 2.72934C4.83446 2.73224 4.85839 2.73512 4.88215 2.73798C5.19198 2.77521 5.50531 2.81244 5.71946 2.81549C6.0508 2.82019 6.32322 2.55541 6.32793 2.22407C6.33264 1.89274 6.06785 1.62032 5.73651 1.61561C5.60081 1.61368 5.3621 1.58702 5.02531 1.54655C5.00076 1.5436 4.97583 1.5406 4.95056 1.53755C4.6469 1.50097 4.29373 1.45842 3.94513 1.42962C3.57094 1.3987 3.17504 1.38108 2.82889 1.4088C2.65549 1.42269 2.47599 1.44926 2.30897 1.49983C2.14712 1.54884 1.9535 1.63327 1.79549 1.79127M3.45318 2.60045L5.48846 4.63574C5.72278 4.87005 5.72278 5.24995 5.48846 5.48426C5.25415 5.71858 4.87425 5.71858 4.63994 5.48426L2.60464 3.44897C2.6098 3.57342 2.61842 3.70517 2.62974 3.84211C2.6566 4.16722 2.69654 4.49891 2.73354 4.80619C2.73644 4.83027 2.73932 4.85419 2.74217 4.87795C2.77941 5.18779 2.81664 5.50112 2.81969 5.71527C2.82439 6.04661 2.55961 6.31903 2.22827 6.32374C1.89693 6.32844 1.62452 6.06366 1.61981 5.73232C1.61788 5.59663 1.59122 5.35791 1.55075 5.02112C1.54779 4.99657 1.54479 4.97164 1.54175 4.94637C1.50516 4.64271 1.46262 4.28953 1.43381 3.94093C1.40289 3.56674 1.38526 3.17084 1.41299 2.82468C1.42688 2.65128 1.45345 2.47178 1.50403 2.30476C1.55304 2.14291 1.63748 1.94928 1.79549 1.79128M21.6816 1.49983C21.8435 1.54884 22.0371 1.63327 22.1951 1.79128C22.3531 1.94928 22.4375 2.14291 22.4866 2.30476C22.5371 2.47178 22.5637 2.65128 22.5776 2.82468C22.6053 3.17084 22.5877 3.56674 22.5568 3.94093C22.528 4.28956 22.4854 4.64277 22.4488 4.94645C22.4458 4.97169 22.4428 4.99659 22.4398 5.02112C22.3994 5.35791 22.3727 5.59663 22.3708 5.73232C22.3661 6.06366 22.0936 6.32844 21.7623 6.32374C21.431 6.31903 21.1662 6.04661 21.1709 5.71527C21.1739 5.50112 21.2112 5.18779 21.2484 4.87795C21.2513 4.85418 21.2541 4.83023 21.257 4.80614C21.294 4.49887 21.334 4.1672 21.3608 3.84211C21.3722 3.70517 21.3808 3.57342 21.3859 3.44897L19.3506 5.48426C19.1163 5.71858 18.7364 5.71858 18.5021 5.48426C18.2678 5.24995 18.2678 4.87005 18.5021 4.63574L20.5374 2.60045C20.413 2.60561 20.2812 2.61423 20.1443 2.62555C19.8192 2.65241 19.4875 2.69235 19.1802 2.72934C19.1561 2.73224 19.1322 2.73512 19.1084 2.73798C18.7986 2.77521 18.4853 2.81244 18.2711 2.81549C17.9398 2.82019 17.6674 2.55541 17.6627 2.22407C17.6579 1.89274 17.9227 1.62032 18.2541 1.61561C18.3898 1.61368 18.6285 1.58702 18.9653 1.54655C18.9898 1.5436 19.0148 1.5406 19.04 1.53755C19.3437 1.50097 19.6969 1.45842 20.0455 1.42962C20.4196 1.3987 20.8155 1.38108 21.1617 1.4088C21.3351 1.42269 21.5146 1.44926 21.6816 1.49983ZM12 5.6C8.46537 5.6 5.59999 8.46538 5.59999 12C5.59999 15.5346 8.46537 18.4 12 18.4C15.5346 18.4 18.4 15.5346 18.4 12C18.4 8.46538 15.5346 5.6 12 5.6ZM4.39999 12C4.39999 7.80264 7.80263 4.4 12 4.4C16.1974 4.4 19.6 7.80264 19.6 12C19.6 16.1974 16.1974 19.6 12 19.6C7.80263 19.6 4.39999 16.1974 4.39999 12ZM11.914 7.85703C12.2454 7.85703 12.514 8.12566 12.514 8.45703V8.74862C12.7685 8.79155 12.9983 8.86333 13.2082 8.96269C13.5718 9.13478 13.8401 9.37297 14.0577 9.61866C14.2774 9.86671 14.2545 10.2459 14.0064 10.4656C13.7584 10.6854 13.3792 10.6624 13.1595 10.4143C13.0136 10.2497 12.87 10.1302 12.6948 10.0473C12.5196 9.96434 12.2773 9.90127 11.914 9.90127C11.4745 9.90127 11.1257 10.0294 10.9013 10.1966C10.6762 10.3644 10.6 10.547 10.6 10.6887C10.6 10.8984 10.6593 10.9952 10.778 11.0741C10.9459 11.1858 11.3023 11.2999 12 11.2999C12.8926 11.2999 13.5695 11.5021 14.0216 11.9271C14.4822 12.3602 14.6 12.9206 14.6 13.3875C14.6 13.975 14.31 14.4863 13.8122 14.8284C13.4625 15.0687 13.0219 15.2201 12.514 15.2849V15.5088C12.514 15.8402 12.2454 16.1088 11.914 16.1088C11.5826 16.1088 11.314 15.8402 11.314 15.5088V15.2883C11.0965 15.2607 10.8972 15.214 10.7078 15.1413C10.3529 15.0052 10.0837 14.7967 9.8224 14.5603C9.5767 14.3379 9.55776 13.9585 9.7801 13.7128C10.0024 13.4671 10.3819 13.4482 10.6276 13.6705C10.8459 13.8681 10.9857 13.9626 11.1377 14.021C11.294 14.0809 11.5136 14.1214 11.914 14.1214C12.5245 14.1214 12.9142 13.9895 13.1325 13.8394C13.3341 13.7009 13.4 13.5453 13.4 13.3875C13.4 13.1093 13.3319 12.9258 13.1996 12.8014C13.0587 12.6689 12.7356 12.4999 12 12.4999C11.2196 12.4999 10.576 12.381 10.1134 12.0734C9.60164 11.733 9.39999 11.2242 9.39999 10.6887C9.39999 10.0851 9.7285 9.57404 10.1842 9.23441C10.499 8.99982 10.886 8.83524 11.314 8.75567V8.45703C11.314 8.12566 11.5826 7.85703 11.914 7.85703ZM2.22827 17.6422C2.55961 17.6469 2.82439 17.9193 2.81969 18.2506C2.81664 18.4648 2.77941 18.7781 2.74217 19.0879C2.73932 19.1117 2.73644 19.1356 2.73354 19.1597C2.69654 19.467 2.6566 19.7987 2.62974 20.1238C2.61842 20.2607 2.6098 20.3925 2.60464 20.5169L4.63994 18.4816C4.87425 18.2473 5.25415 18.2473 5.48846 18.4816C5.72278 18.716 5.72278 19.0959 5.48846 19.3302L3.45318 21.3654C3.57763 21.3603 3.70937 21.3517 3.84631 21.3404C4.17139 21.3135 4.50305 21.2736 4.81032 21.2366C4.83442 21.2337 4.85837 21.2308 4.88215 21.2279C5.19198 21.1907 5.50531 21.1535 5.71946 21.1504C6.0508 21.1457 6.32322 21.4105 6.32793 21.7418C6.33264 22.0732 6.06785 22.3456 5.73651 22.3503C5.60081 22.3522 5.3621 22.3789 5.02531 22.4194C5.00073 22.4223 4.97578 22.4253 4.95049 22.4284C4.64685 22.4649 4.2937 22.5075 3.94513 22.5363C3.57094 22.5672 3.17504 22.5848 2.82889 22.5571C2.65549 22.5432 2.47599 22.5166 2.30897 22.4661C2.14712 22.4171 1.9535 22.3326 1.79549 22.1746C1.63748 22.0166 1.55304 21.823 1.50403 21.6611C1.45345 21.4941 1.42688 21.3146 1.41299 21.1412C1.38526 20.7951 1.40289 20.3992 1.43381 20.025C1.46262 19.6764 1.50517 19.3232 1.54175 19.0195C1.54479 18.9943 1.5478 18.9693 1.55075 18.9448C1.59122 18.608 1.61788 18.3693 1.61981 18.2336C1.62452 17.9022 1.89693 17.6375 2.22827 17.6422ZM21.7623 17.6422C22.0936 17.6375 22.3661 17.9022 22.3708 18.2336C22.3727 18.3693 22.3994 18.608 22.4398 18.9448C22.4428 18.9693 22.4458 18.9942 22.4488 19.0194C22.4854 19.3231 22.528 19.6763 22.5568 20.025C22.5877 20.3992 22.6053 20.7951 22.5776 21.1412C22.5637 21.3146 22.5371 21.4941 22.4866 21.6611C22.4375 21.823 22.3531 22.0166 22.1951 22.1746C22.0371 22.3326 21.8435 22.4171 21.6816 22.4661C21.5146 22.5166 21.3351 22.5432 21.1617 22.5571C20.8155 22.5848 20.4196 22.5672 20.0455 22.5363C19.6969 22.5075 19.3437 22.4649 19.0401 22.4284C19.0148 22.4253 18.9899 22.4223 18.9653 22.4194C18.6285 22.3789 18.3898 22.3522 18.2541 22.3503C17.9227 22.3456 17.6579 22.0732 17.6627 21.7418C17.6674 21.4105 17.9398 21.1457 18.2711 21.1504C18.4853 21.1535 18.7986 21.1907 19.1084 21.2279C19.1322 21.2308 19.1562 21.2337 19.1803 21.2366C19.4875 21.2736 19.8192 21.3135 20.1443 21.3404C20.2812 21.3517 20.413 21.3603 20.5374 21.3655L18.5021 19.3302C18.2678 19.0959 18.2678 18.716 18.5021 18.4816C18.7364 18.2473 19.1163 18.2473 19.3506 18.4816L21.3859 20.5169C21.3808 20.3925 21.3722 20.2607 21.3608 20.1238C21.334 19.7987 21.294 19.467 21.257 19.1598C21.2541 19.1357 21.2513 19.1117 21.2484 19.0879C21.2112 18.7781 21.1739 18.4648 21.1709 18.2506C21.1662 17.9193 21.431 17.6469 21.7623 17.6422Z" fill="#010101"/>
</svg>
