<svg xmlns="http://www.w3.org/2000/svg" width="24" height="24" viewBox="0 0 24 24" fill="none">
<g id="Group">
<g id="Group 1000007387">
<path id="Subtract" fill-rule="evenodd" clip-rule="evenodd" d="M11.3329 4.00592C11.3446 4.0032 11.3565 4.00122 11.3684 4C11.4068 3.99997 11.4447 4.00768 11.48 4.0227C11.5153 4.03772 11.5471 4.05973 11.5737 4.08739C11.6002 4.11504 11.6209 4.14779 11.6345 4.18365C11.6481 4.21951 11.6542 4.25775 11.6526 4.29605V6.55202C11.6269 6.5508 11.601 6.54935 11.5748 6.54789C11.5063 6.54406 11.4366 6.54018 11.3684 6.54018C11.298 6.54018 11.2292 6.54405 11.1601 6.54794C11.1349 6.54936 11.1096 6.55078 11.0842 6.55202V4.29605C11.0822 4.22544 11.1065 4.1566 11.1525 4.10296C11.1985 4.04933 11.2628 4.01473 11.3329 4.00592ZM5.49491 6.42172C5.53748 6.38839 5.58868 6.36791 5.64248 6.36265C5.68472 6.35835 5.72738 6.36355 5.76735 6.3779C5.80731 6.39224 5.84355 6.41536 5.87341 6.44555L7.47216 8.0443C7.33043 8.17252 7.19797 8.30548 7.06951 8.44695L5.47076 6.8482C5.43223 6.81028 5.4053 6.76215 5.39314 6.70948C5.38099 6.6568 5.3841 6.60175 5.40213 6.55078C5.42015 6.49981 5.45234 6.45504 5.49491 6.42172ZM6.48321 12.3313C6.48321 9.63992 8.66509 7.45217 11.3565 7.45217C11.4523 7.45217 11.5475 7.45495 11.642 7.46042C10.6267 8.64216 10.0106 10.183 10.0106 11.8635C10.0106 13.9637 10.973 15.8459 12.4742 17.0814C12.1151 17.1658 11.741 17.2105 11.3565 17.2105C8.6649 17.2105 6.48321 15.0227 6.48321 12.3313ZM3.06385 12.1513C3.1116 12.0924 3.18077 12.0549 3.25615 12.0471C3.26602 12.0466 3.2759 12.0466 3.28576 12.0471C3.29562 12.0466 3.30551 12.0466 3.31537 12.0471H5.5774C5.57624 12.0707 5.57493 12.0946 5.57361 12.1186C5.56962 12.1912 5.56555 12.2651 5.56555 12.3372C5.56555 12.4042 5.56931 12.4699 5.57308 12.5357C5.5746 12.5623 5.57612 12.5889 5.5774 12.6155H3.31537C3.23999 12.6234 3.16457 12.601 3.10572 12.5532C3.04687 12.5055 3.00939 12.4363 3.00154 12.3609C2.99369 12.2855 3.0161 12.2101 3.06385 12.1513ZM5.47072 17.8144L7.06947 16.2157C7.19697 16.3563 7.32558 16.4908 7.46618 16.6183L5.87337 18.2171C5.81997 18.2705 5.74755 18.3005 5.67204 18.3005C5.59653 18.3005 5.52411 18.2705 5.47072 18.2171C5.41732 18.1637 5.38733 18.0913 5.38733 18.0158C5.38733 17.9784 5.39469 17.9413 5.409 17.9068C5.42331 17.8722 5.44428 17.8409 5.47072 17.8144ZM11.084 20.3723V18.1163C11.1099 18.1176 11.1356 18.119 11.1613 18.1204C11.2299 18.1243 11.2983 18.1281 11.3682 18.1281C11.4382 18.1281 11.5096 18.1241 11.5799 18.1202C11.6042 18.1188 11.6285 18.1175 11.6525 18.1163V20.3723C11.6531 20.41 11.6462 20.4475 11.6322 20.4825C11.6182 20.5175 11.5973 20.5494 11.5709 20.5763C11.5444 20.6032 11.5129 20.6245 11.4781 20.6391C11.4433 20.6537 11.4059 20.6612 11.3682 20.6612C11.3305 20.6612 11.2932 20.6537 11.2584 20.6391C11.2236 20.6245 11.192 20.6032 11.1656 20.5763C11.1391 20.5494 11.1183 20.5175 11.1043 20.4825C11.0903 20.4475 11.0834 20.41 11.084 20.3723Z" fill="#A2A2A2"/>
<path id="Vector" d="M20.9248 14.2511C20.8451 14.1325 20.6856 14.0534 20.5261 14.0929C20.3268 14.1325 20.1274 14.1522 19.928 14.1522C17.9145 14.1522 16.2598 12.5314 16.2598 10.5153C16.2598 9.27003 16.8978 8.1236 17.9743 7.45156C18.1139 7.37249 18.1737 7.21437 18.1538 7.076C18.1338 6.91788 18.0341 6.79928 17.8747 6.73998C17.3164 6.56209 16.7184 6.46326 16.1203 6.46326C13.0701 6.46326 10.5781 8.93401 10.5781 11.9582C10.5781 14.9824 13.0701 17.4532 16.1203 17.4532C18.0939 17.4532 19.928 16.4056 20.9248 14.7057C21.0245 14.5476 21.0245 14.3697 20.9248 14.2511Z" fill="#A2A2A2"/>
</g>
</g>
</svg>