<svg width="25" height="24" viewBox="0 0 25 24" fill="none" xmlns="http://www.w3.org/2000/svg">
<path fill-rule="evenodd" clip-rule="evenodd" d="M11.3379 0.900473C11.3535 0.896847 11.3694 0.894202 11.3853 0.892578C11.4364 0.892541 11.487 0.902821 11.5341 0.922847C11.5811 0.942874 11.6236 0.972213 11.659 1.00909C11.6944 1.04597 11.722 1.08963 11.7401 1.13745C11.7582 1.18526 11.7664 1.23623 11.7643 1.28731V4.29523C11.73 4.2936 11.6954 4.29167 11.6605 4.28972C11.5691 4.28462 11.4763 4.27944 11.3853 4.27944C11.2915 4.27944 11.1997 4.28461 11.1076 4.28979C11.0739 4.29169 11.0402 4.29358 11.0063 4.29523V1.28731C11.0037 1.19316 11.0361 1.10138 11.0974 1.02986C11.1587 0.958345 11.2445 0.91222 11.3379 0.900473ZM3.55405 4.1215C3.61081 4.07707 3.67907 4.04976 3.75081 4.04275C3.80713 4.037 3.86401 4.04394 3.91729 4.06307C3.97058 4.0822 4.0189 4.11303 4.05871 4.15328L6.19035 6.28492C6.00138 6.45588 5.82477 6.63316 5.6535 6.82178L3.52186 4.69013C3.47047 4.63958 3.43457 4.57541 3.41836 4.50517C3.40215 4.43494 3.40631 4.36154 3.43034 4.29358C3.45438 4.22562 3.49729 4.16593 3.55405 4.1215ZM4.87177 12.0009C4.87177 8.41239 7.78091 5.49542 11.3694 5.49542C11.4975 5.49542 11.6248 5.49914 11.7512 5.50648C10.3976 7.08208 9.57614 9.13644 9.57614 11.3769C9.57614 14.1771 10.8593 16.6866 12.8608 18.334C12.3818 18.4467 11.8824 18.5063 11.3694 18.5063C7.78065 18.5063 4.87177 15.5894 4.87177 12.0009ZM0.312672 11.7608C0.376338 11.6823 0.468568 11.6324 0.569074 11.6219C0.582224 11.6212 0.5954 11.6212 0.608549 11.6219C0.621698 11.6212 0.634875 11.6212 0.648024 11.6219H3.66403C3.66249 11.6534 3.66074 11.6853 3.65897 11.7173C3.65366 11.814 3.64824 11.9126 3.64824 12.0088C3.64824 12.098 3.65325 12.1856 3.65828 12.2734C3.6603 12.3088 3.66233 12.3443 3.66403 12.3798H0.648024C0.547518 12.3903 0.446969 12.3604 0.368498 12.2968C0.290026 12.2331 0.24006 12.1409 0.229591 12.0403C0.219121 11.9398 0.249007 11.8393 0.312672 11.7608ZM3.52179 19.3116L5.65343 17.18C5.82343 17.3675 5.99492 17.5468 6.18238 17.7168L4.05865 19.8485C3.98746 19.9197 3.8909 19.9596 3.79022 19.9596C3.68954 19.9596 3.59298 19.9197 3.52179 19.8485C3.4506 19.7773 3.41061 19.6807 3.41061 19.58C3.41061 19.5302 3.42042 19.4808 3.4395 19.4348C3.45858 19.3887 3.48654 19.3469 3.52179 19.3116ZM11.0061 22.7221V19.7141C11.0406 19.7158 11.0748 19.7177 11.1091 19.7196C11.2006 19.7247 11.2918 19.7298 11.3851 19.7298C11.4783 19.7298 11.5736 19.7245 11.6673 19.7193C11.6997 19.7175 11.732 19.7157 11.764 19.7141V22.7221C11.7648 22.7723 11.7556 22.8223 11.737 22.869C11.7183 22.9157 11.6905 22.9582 11.6552 22.994C11.62 23.0299 11.5779 23.0584 11.5315 23.0778C11.4851 23.0972 11.4353 23.1072 11.3851 23.1072C11.3348 23.1072 11.285 23.0972 11.2386 23.0778C11.1922 23.0584 11.1501 23.0299 11.1149 22.994C11.0796 22.9582 11.0518 22.9157 11.0331 22.869C11.0145 22.8223 11.0053 22.7723 11.0061 22.7221Z" fill="#373737"/>
<path d="M24.1275 14.5602C24.0212 14.402 23.8085 14.2966 23.5959 14.3493C23.3301 14.402 23.0643 14.4284 22.7985 14.4284C20.1138 14.4284 17.9076 12.2673 17.9076 9.57917C17.9076 7.91884 18.7582 6.39029 20.1935 5.49423C20.3796 5.38882 20.4593 5.17798 20.4328 4.9935C20.4062 4.78267 20.2733 4.62454 20.0606 4.54548C19.3164 4.30829 18.5189 4.17651 17.7215 4.17651C13.6546 4.17651 10.332 7.47082 10.332 11.503C10.332 15.5353 13.6546 18.8296 17.7215 18.8296C20.353 18.8296 22.7985 17.4328 24.1275 15.1663C24.2604 14.9555 24.2604 14.7183 24.1275 14.5602Z" fill="#373737"/>
</svg>
