<svg width="200" height="173" viewBox="0 0 200 173" fill="none" xmlns="http://www.w3.org/2000/svg">
<g id="Custom Tokens">
<g id="No result found">
<path id="Vector 11" d="M44.1669 61.5761C5.14169 56.15 5.2298 102.127 11.9194 116.708C24.8585 144.933 74.7155 165.443 81.0949 141.673C90.5544 106.426 144.01 138.776 166.315 136.919C188.619 135.061 190.565 105.059 172.814 90.5792C155.062 76.099 166.848 58.0255 164.253 41.585C161.658 25.1445 139.764 12.4813 115.857 27.4918C93.2753 41.6699 98.3431 69.1088 44.1669 61.5761Z" fill="#F3F8FC"/>
<g id="Group 1000007730">
<path id="Vector 5" d="M36.5088 80.6708C33.9552 78.615 30.681 78.7674 26.3852 79.9357" stroke="#002D5E" stroke-width="0.876984" stroke-linecap="round"/>
<path id="Vector 6" d="M41.0661 73.0165C38.4453 69.7221 37.8825 67.7282 37.3779 63.416" stroke="#002D5E" stroke-width="0.876984" stroke-linecap="round"/>
<path id="Vector 7" d="M37.6079 75.705C34.4079 72.7556 30.2441 70.1225 26.3138 67.9883" stroke="#002D5E" stroke-width="0.876984" stroke-linecap="round"/>
</g>
<g id="Group 1000007739">
<path id="Vector 2" d="M141.301 100.922C141.649 97.8641 141.882 94.7498 142.793 91.8051C143.575 89.2815 144.813 87.0878 146.561 85.1448C148.017 83.5256 149.756 82.0702 151.784 81.2784C153.754 80.5087 155.938 80.2721 158.039 80.2769C160.557 80.2827 163.21 80.6052 165.532 81.6981C167.335 82.5467 168.82 84.3354 169.835 86.0492C171.594 89.0188 171.082 92.6829 168.915 95.2685C168.151 96.1798 167.162 97.0405 166.053 97.4717C164.489 98.0807 163.018 97.485 161.924 96.2281C159.448 93.3846 160.305 88.8376 161.602 85.6763C163.126 81.9612 165.879 78.7445 169.136 76.527C171.497 74.9201 174.164 73.7884 176.816 72.7913C179.435 71.8066 182.097 71.1348 184.786 70.3983" stroke="#002D5E" stroke-width="0.876984" stroke-dasharray="3.51 2.63"/>
<circle id="Ellipse 1940" cx="186.116" cy="70.3986" r="2.74629" fill="#002D5E"/>
</g>
<g id="Group 1000007760">
<g id="Group 1000007756" filter="url(#filter0_f_19281_419764)">
<g id="Group 1000007748">
<rect id="Rectangle 6610" x="46.9775" y="112.419" width="99.8093" height="28.4001" rx="4.40431" fill="#D6E8F9" fill-opacity="0.5" stroke="white" stroke-width="0.407059"/>
<rect id="Rectangle 6611" x="70.9172" y="120.126" width="70.5964" height="4.05602" rx="2.02801" fill="#F5FAFF" stroke="white" stroke-width="0.407059"/>
<rect id="Rectangle 6612" x="70.9172" y="129.868" width="70.5964" height="4.05602" rx="2.02801" fill="#F5FAFF" stroke="white" stroke-width="0.407059"/>
</g>
<path id="Ellipse 1952" d="M67.2634 126.82C67.2634 131.189 63.7214 134.731 59.3522 134.731C54.983 134.731 51.4411 131.189 51.4411 126.82C51.4411 122.451 54.983 118.909 59.3522 118.909C63.7214 118.909 67.2634 122.451 67.2634 126.82Z" fill="#F5FAFF" stroke="white" stroke-width="0.407059"/>
</g>
<g id="Group 1000007757" filter="url(#filter1_f_19281_419764)">
<g id="Group 1000007748_2">
<rect id="Rectangle 6610_2" x="46.9776" y="44.5924" width="99.8093" height="28.4001" rx="4.40431" fill="#D6E8F9" fill-opacity="0.5" stroke="white" stroke-width="0.407059"/>
<rect id="Rectangle 6611_2" x="70.9173" y="52.3" width="70.5964" height="4.05602" rx="2.02801" fill="#F5FAFF" stroke="white" stroke-width="0.407059"/>
<rect id="Rectangle 6612_2" x="70.9173" y="62.0412" width="70.5964" height="4.05602" rx="2.02801" fill="#F5FAFF" stroke="white" stroke-width="0.407059"/>
</g>
<path id="Ellipse 1952_2" d="M67.2635 59.0002C67.2635 63.3694 63.7216 66.9113 59.3524 66.9113C54.9831 66.9113 51.4412 63.3694 51.4412 59.0002C51.4412 54.631 54.9831 51.089 59.3524 51.089C63.7216 51.089 67.2635 54.631 67.2635 59.0002Z" fill="#F5FAFF" stroke="white" stroke-width="0.407059"/>
</g>
<g id="Group 1000007758">
<g id="Rectangle 6610_3" filter="url(#filter2_d_19281_419764)">
<rect x="38.4755" y="76.0745" width="108.517" height="31.1933" rx="4.98952" fill="white"/>
</g>
<rect id="Rectangle 6611_3" x="66.1331" y="84.5723" width="75.2698" height="4.73124" rx="2.36562" fill="#E6F2FF"/>
<rect id="Rectangle 6612_3" x="66.1331" y="94.8943" width="75.2698" height="4.73124" rx="2.36562" fill="#E6F2FF"/>
</g>
</g>
</g>
<g id="Group 1000007740">
<g id="Ellipse 1941" filter="url(#filter3_b_19281_419764)">
<circle cx="52.3863" cy="91.6074" r="9.74949" stroke="#002D5E" stroke-width="0.446247" stroke-dasharray="1.78 1.34"/>
</g>
</g>
<g id="Group 1000007726">
<g id="Ellipse 1938" filter="url(#filter4_bd_19281_419764)">
<circle cx="54.4919" cy="91.8479" r="9.98996" fill="#E5F2FF"/>
<circle cx="54.4919" cy="91.8479" r="9.89577" stroke="white" stroke-width="0.188376"/>
</g>
<g id="Group 1000007725">
<path id="Line 351" d="M53.2242 90.5801L55.758 93.1138" stroke="#002D5E" stroke-width="0.753506" stroke-linecap="round"/>
<path id="Line 352" d="M53.2242 93.1135L55.758 90.5798" stroke="#002D5E" stroke-width="0.753506" stroke-linecap="round"/>
</g>
<circle id="Ellipse 1939" cx="54.4914" cy="91.8473" r="4.1503" stroke="#002D5E" stroke-width="0.753506"/>
</g>
</g>
<defs>
<filter id="filter0_f_19281_419764" x="46.3899" y="111.831" width="100.984" height="29.5751" filterUnits="userSpaceOnUse" color-interpolation-filters="sRGB">
<feFlood flood-opacity="0" result="BackgroundImageFix"/>
<feBlend mode="normal" in="SourceGraphic" in2="BackgroundImageFix" result="shape"/>
<feGaussianBlur stdDeviation="0.191993" result="effect1_foregroundBlur_19281_419764"/>
</filter>
<filter id="filter1_f_19281_419764" x="46.3901" y="44.0049" width="100.984" height="29.5751" filterUnits="userSpaceOnUse" color-interpolation-filters="sRGB">
<feFlood flood-opacity="0" result="BackgroundImageFix"/>
<feBlend mode="normal" in="SourceGraphic" in2="BackgroundImageFix" result="shape"/>
<feGaussianBlur stdDeviation="0.191993" result="effect1_foregroundBlur_19281_419764"/>
</filter>
<filter id="filter2_d_19281_419764" x="33.0702" y="74.8271" width="116.833" height="39.5092" filterUnits="userSpaceOnUse" color-interpolation-filters="sRGB">
<feFlood flood-opacity="0" result="BackgroundImageFix"/>
<feColorMatrix in="SourceAlpha" type="matrix" values="0 0 0 0 0 0 0 0 0 0 0 0 0 0 0 0 0 0 127 0" result="hardAlpha"/>
<feOffset dx="-1.24738" dy="2.91055"/>
<feGaussianBlur stdDeviation="2.07897"/>
<feComposite in2="hardAlpha" operator="out"/>
<feColorMatrix type="matrix" values="0 0 0 0 0.507031 0 0 0 0 0.626875 0 0 0 0 0.7375 0 0 0 0.49 0"/>
<feBlend mode="normal" in2="BackgroundImageFix" result="effect1_dropShadow_19281_419764"/>
<feBlend mode="normal" in="SourceGraphic" in2="effect1_dropShadow_19281_419764" result="shape"/>
</filter>
<filter id="filter3_b_19281_419764" x="41.5212" y="80.7423" width="21.7302" height="21.7303" filterUnits="userSpaceOnUse" color-interpolation-filters="sRGB">
<feFlood flood-opacity="0" result="BackgroundImageFix"/>
<feGaussianBlur in="BackgroundImageFix" stdDeviation="0.446247"/>
<feComposite in2="SourceAlpha" operator="in" result="effect1_backgroundBlur_19281_419764"/>
<feBlend mode="normal" in="SourceGraphic" in2="effect1_backgroundBlur_19281_419764" result="shape"/>
</filter>
<filter id="filter4_bd_19281_419764" x="42.9949" y="81.1044" width="22.994" height="24.2846" filterUnits="userSpaceOnUse" color-interpolation-filters="sRGB">
<feFlood flood-opacity="0" result="BackgroundImageFix"/>
<feGaussianBlur in="BackgroundImageFix" stdDeviation="0.376753"/>
<feComposite in2="SourceAlpha" operator="in" result="effect1_backgroundBlur_19281_419764"/>
<feColorMatrix in="SourceAlpha" type="matrix" values="0 0 0 0 0 0 0 0 0 0 0 0 0 0 0 0 0 0 127 0" result="hardAlpha"/>
<feOffset dy="2.04407"/>
<feGaussianBlur stdDeviation="0.753506"/>
<feComposite in2="hardAlpha" operator="out"/>
<feColorMatrix type="matrix" values="0 0 0 0 0.814115 0 0 0 0 0.882372 0 0 0 0 0.9625 0 0 0 0.33 0"/>
<feBlend mode="normal" in2="effect1_backgroundBlur_19281_419764" result="effect2_dropShadow_19281_419764"/>
<feBlend mode="normal" in="SourceGraphic" in2="effect2_dropShadow_19281_419764" result="shape"/>
</filter>
</defs>
</svg>
