<svg width="32" height="32" viewBox="0 0 32 32" fill="none" xmlns="http://www.w3.org/2000/svg">
<path fill-rule="evenodd" d="M24.6739 9.46265C22.5971 7.87997 19.3118 7.61169 19.1712 7.60204C18.9531 7.58467 18.7452 7.70047 18.6556 7.89155C18.6474 7.90313 18.5761 8.05947 18.4966 8.30266C19.8702 8.52269 21.5577 8.96468 23.0842 9.86217C23.3288 10.005 23.4042 10.31 23.2534 10.5416C23.1535 10.694 22.9844 10.777 22.8091 10.777C22.7154 10.777 22.6196 10.7519 22.534 10.7018C19.909 9.15962 16.6318 9.08242 16 9.08242C15.3682 9.08242 12.089 9.15962 9.46603 10.7018C9.22147 10.8465 8.89946 10.7751 8.74864 10.5435C8.59579 10.31 8.6712 10.0069 8.91576 9.86217C10.4423 8.96661 12.1298 8.52269 13.5034 8.30459C13.4239 8.05947 13.3526 7.90506 13.3465 7.89155C13.2548 7.70047 13.0489 7.58081 12.8288 7.60204C12.6882 7.61169 9.40285 7.87997 7.29755 9.48388C6.19905 10.447 4 16.0751 4 20.9409C4 21.0277 4.02446 21.1107 4.06929 21.186C5.5856 23.7106 9.72486 24.3707 10.6685 24.3996C10.6726 24.3996 10.6787 24.3996 10.6848 24.3996C10.8519 24.3996 11.0088 24.3243 11.1067 24.1969L12.0605 22.954C9.48641 22.3248 8.17188 21.2555 8.09647 21.1918C7.88043 21.0123 7.86005 20.6996 8.05163 20.495C8.24117 20.2904 8.57133 20.2711 8.78736 20.4506C8.81793 20.4777 11.2391 22.4232 16 22.4232C20.769 22.4232 23.1902 20.4699 23.2147 20.4506C23.4307 20.2731 23.7588 20.2904 23.9504 20.497C24.1399 20.7016 24.1196 21.0123 23.9035 21.1918C23.8281 21.2555 22.5136 22.3248 19.9395 22.954L20.8933 24.1969C20.9912 24.3243 21.1481 24.3996 21.3152 24.3996C21.3213 24.3996 21.3274 24.3996 21.3315 24.3996C22.2751 24.3707 26.4144 23.7106 27.9307 21.186C27.9755 21.1107 28 21.0277 28 20.9409C28 16.0751 25.801 10.447 24.6739 9.46265ZM12.6087 18.9645C11.5999 18.9645 10.7826 18.0805 10.7826 16.9881C10.7826 15.8956 11.5999 15.0117 12.6087 15.0117C13.6175 15.0117 14.4348 15.8956 14.4348 16.9881C14.4348 18.0805 13.6175 18.9645 12.6087 18.9645ZM19.3913 18.9645C18.3825 18.9645 17.5652 18.0805 17.5652 16.9881C17.5652 15.8956 18.3825 15.0117 19.3913 15.0117C20.4001 15.0117 21.2174 15.8956 21.2174 16.9881C21.2174 18.0805 20.4001 18.9645 19.3913 18.9645Z" fill="#010101"/>
</svg>
