<svg width="16" height="16" viewBox="0 0 16 16" fill="none" xmlns="http://www.w3.org/2000/svg">
<path fill-rule="evenodd" d="M8.8548 12.9707C12.067 12.9707 14.6803 10.3574 14.6803 7.1452C14.6803 3.93297 12.067 1.31969 8.8548 1.31969C5.64257 1.31969 3.02929 3.93297 3.02929 7.1452C3.02929 8.37412 3.4121 9.51535 4.06437 10.4562L3.21525 11.3053L3.20468 11.2948C3.11783 11.2081 2.97714 11.2081 2.89045 11.2948L0.374595 13.8106C0.13297 14.0522 0 14.3745 0 14.7181C0 15.0617 0.13297 15.3839 0.374595 15.6254C0.616221 15.867 0.938332 16 1.28207 16C1.62582 16 1.94793 15.867 2.18955 15.6254L4.70541 13.1095C4.74716 13.0678 4.77047 13.0113 4.77047 12.9524C4.77047 12.8936 4.747 12.8369 4.70541 12.7953L4.69485 12.7848L5.54397 11.9356C6.48482 12.5879 7.62588 12.9709 8.85497 12.9709L8.8548 12.9707ZM8.8548 1.76404C11.8219 1.76404 14.236 4.17795 14.236 7.1452C14.236 10.1125 11.822 12.5264 8.8548 12.5264C5.88755 12.5264 3.47364 10.1123 3.47364 7.1452C3.47364 4.17812 5.88772 1.76404 8.8548 1.76404ZM1.87516 15.3112C1.71754 15.4688 1.50693 15.5556 1.28207 15.5556C1.05722 15.5556 0.846612 15.4688 0.688994 15.3112C0.531375 15.1536 0.444517 14.943 0.444517 14.7181C0.444517 14.4932 0.531375 14.2826 0.688994 14.125L3.04774 11.7663L4.23407 12.9526L1.87532 15.3113L1.87516 15.3112ZM4.38045 12.4704L3.52948 11.6196L4.334 10.815C4.5877 11.1269 4.87292 11.4121 5.18481 11.666L4.38028 12.4705L4.38045 12.4704ZM8.8548 11.6999C11.3663 11.6999 13.4095 9.6567 13.4095 7.1452C13.4095 4.6337 11.3663 2.59053 8.8548 2.59053C6.3433 2.59053 4.30013 4.6337 4.30013 7.1452C4.30013 9.6567 6.3433 11.6999 8.8548 11.6999ZM8.8548 3.03488C11.1212 3.03488 12.965 4.87868 12.965 7.14503C12.965 9.41138 11.1212 11.2554 8.8548 11.2554C6.58845 11.2554 4.74465 9.41155 4.74465 7.14503C4.74465 4.87851 6.58845 3.03488 8.8548 3.03488ZM6.51584 8.35165L6.24655 8.75324C6.18736 8.84144 6.19893 8.95899 6.27405 9.03411L6.96589 9.72595C7.04101 9.8009 7.15856 9.81247 7.24676 9.75328L7.64835 9.48399L8.05396 9.65234L8.14753 10.1265C8.16799 10.2307 8.25937 10.3058 8.36551 10.3058H9.34409C9.45023 10.3058 9.54161 10.2307 9.56207 10.1265L9.65563 9.65234L10.0613 9.48399L10.4628 9.75328C10.551 9.81247 10.6688 9.8009 10.7437 9.72595L11.4355 9.03411C11.5107 8.95899 11.5221 8.84128 11.463 8.75324L11.1938 8.35165L11.3621 7.94587L11.8363 7.85247C11.9404 7.83185 12.0156 7.74063 12.0156 7.63449V6.65591C12.0156 6.54977 11.9404 6.45839 11.8363 6.43793L11.3621 6.34453L11.1938 5.93892L11.463 5.53733C11.5222 5.44913 11.5107 5.33158 11.4355 5.25646L10.7437 4.56462C10.6686 4.4895 10.5509 4.4781 10.4628 4.53729L10.0613 4.80658L9.65563 4.63823L9.56207 4.16403C9.54161 4.05991 9.45023 3.98479 9.34409 3.98479H8.36551C8.25937 3.98479 8.16799 4.05991 8.14753 4.16403L8.05396 4.63823L7.64835 4.80658L7.24676 4.53729C7.15856 4.4781 7.04085 4.48967 6.96589 4.56462L6.27405 5.25646C6.19893 5.33158 6.18753 5.44913 6.24655 5.53733L6.51584 5.93892L6.34749 6.34453L5.8733 6.43793C5.76917 6.45855 5.69405 6.54977 5.69405 6.65591V7.63449C5.69405 7.74063 5.76917 7.83201 5.8733 7.85247L6.34749 7.94587L6.51584 8.35165ZM6.13857 6.83852L6.55022 6.75736C6.62316 6.74294 6.68403 6.69314 6.71253 6.62439L6.9721 5.99878C7.0006 5.93003 6.99289 5.85172 6.95147 5.78985L6.71756 5.44108L7.15118 5.00746L7.49995 5.24137C7.56183 5.28279 7.64013 5.2905 7.70888 5.26216L8.33449 5.0026C8.40307 4.97409 8.45304 4.91322 8.46729 4.84028L8.54845 4.42863H9.16165L9.24281 4.84028C9.25723 4.91322 9.30703 4.97409 9.37561 5.0026L10.0012 5.26216C10.07 5.29067 10.1484 5.28296 10.2101 5.24137L10.5589 5.00746L10.9925 5.44108L10.7586 5.78985C10.7172 5.85156 10.7095 5.93003 10.738 5.99878L10.9976 6.62439C11.0261 6.69297 11.0869 6.74294 11.1599 6.75719L11.5715 6.83835V7.45155L11.1599 7.53271C11.0869 7.54713 11.0261 7.59693 10.9976 7.66568L10.738 8.29129C10.7095 8.36004 10.7172 8.43834 10.7588 8.50022L10.9927 8.84899L10.5591 9.28261L10.2103 9.04869C10.1486 9.00728 10.0701 8.99957 10.0014 9.0279L9.37578 9.28747C9.3072 9.31598 9.25723 9.37684 9.24298 9.44978L9.16182 9.86144H8.54862L8.46746 9.44978C8.45304 9.37684 8.40324 9.31598 8.33466 9.28747L7.70905 9.0279C7.6403 8.9994 7.56199 9.00711 7.50012 9.04869L7.15135 9.28261L6.71773 8.84899L6.95164 8.50022C6.99306 8.43851 7.00077 8.36004 6.97227 8.29129L6.7127 7.66568C6.68419 7.5971 6.62333 7.54713 6.55038 7.53271L6.13873 7.45155V6.83835L6.13857 6.83852ZM8.8548 8.88839C9.8161 8.88839 10.5982 8.10634 10.5982 7.14503C10.5982 6.18373 9.8161 5.40167 8.8548 5.40167C7.8935 5.40167 7.11144 6.18373 7.11144 7.14503C7.11144 8.10634 7.8935 8.88839 8.8548 8.88839ZM8.8548 5.84619C9.57096 5.84619 10.1536 6.42888 10.1536 7.14503C10.1536 7.86119 9.57096 8.44388 8.8548 8.44388C8.13864 8.44388 7.55596 7.86119 7.55596 7.14503C7.55596 6.42888 8.13864 5.84619 8.8548 5.84619ZM15.8353 10.564C15.816 10.5692 15.7967 10.5716 15.7776 10.5716C15.6795 10.5716 15.5896 10.5062 15.5631 10.4067L15.4971 10.1602C15.1235 10.9799 14.5946 11.7351 13.9486 12.3656C13.1831 13.1126 12.2471 13.6912 11.2417 14.0393C11.2177 14.0477 11.1931 14.0516 11.1689 14.0516C11.0769 14.0516 10.9907 13.9939 10.959 13.902C10.9189 13.786 10.9803 13.6594 11.0963 13.6193C12.8617 13.0083 14.2829 11.7186 15.0641 10.0402L14.9068 10.1443C14.8046 10.2122 14.6666 10.1841 14.5988 10.0818C14.5311 9.97948 14.5591 9.84148 14.6614 9.77374L15.4164 9.27372C15.4761 9.23432 15.5509 9.22576 15.6178 9.25125C15.6847 9.27657 15.7352 9.33241 15.7538 9.40149L15.9924 10.2917C16.0241 10.4102 15.9538 10.5323 15.8353 10.564ZM10.9837 0.583581C10.9442 0.523888 10.9359 0.449103 10.961 0.382199C10.9863 0.315295 11.0423 0.264823 11.1113 0.246211L12.0015 0.00760352C12.12 -0.0240878 12.2419 0.0461697 12.2736 0.164719C12.3053 0.283268 12.235 0.405171 12.1165 0.436862L11.8707 0.50276C12.6997 0.880709 13.4635 1.41862 14.0981 2.07492C14.8337 2.83551 15.4047 3.76345 15.7491 4.75829C15.7892 4.87432 15.7278 5.00092 15.6118 5.041C15.5876 5.04938 15.5631 5.05324 15.539 5.05324C15.4469 5.05324 15.3607 4.99555 15.3291 4.90367C14.7192 3.14169 13.4281 1.71827 11.7505 0.936378L11.8542 1.09299C11.922 1.19527 11.894 1.33327 11.7917 1.40102C11.754 1.426 11.7114 1.43807 11.6691 1.43807C11.597 1.43807 11.5264 1.40303 11.4837 1.33847L10.9837 0.583581ZM1.7172 3.99837C1.68534 3.87982 1.75577 3.75792 1.87432 3.72622C1.99287 3.69453 2.11477 3.76479 2.14646 3.88334L2.21253 4.12966C2.58796 3.30635 3.12017 2.54777 3.77027 1.91562C4.53388 1.17314 5.46667 0.597331 6.46805 0.250738C6.58392 0.210663 6.71052 0.272034 6.75076 0.388067C6.79084 0.504101 6.72947 0.630699 6.61343 0.670775C4.84945 1.28129 3.42736 2.57159 2.64598 4.24972L2.80292 4.14576C2.90521 4.07785 3.04321 4.10602 3.11095 4.2083C3.17869 4.31059 3.15069 4.44859 3.04841 4.51633L2.29335 5.01635C2.25646 5.04083 2.2137 5.05324 2.17061 5.05324C2.14411 5.05324 2.11745 5.04854 2.09196 5.03882C2.02506 5.0135 1.97459 4.95766 1.95598 4.88858L1.7172 3.99837Z" fill="#010101"/>
</svg>
