<svg width="24" height="24" viewBox="0 0 24 24" fill="none" xmlns="http://www.w3.org/2000/svg">
    <path
        d="M6.302 2.964c-.348.051-.64.144-.96.305-.814.41-1.324 1.056-1.589 2.011-.039.139-.055 1.781-.071 7.24l-.022 7.06-.28.01c-.154.005-.339.02-.411.032-.149.025-.386.217-.471.382-.075.145-.075.528.001.673.08.156.275.312.453.364.103.03 2.329.039 7.391.031l7.243-.012.141-.096c.486-.334.46-1.025-.049-1.285-.118-.06-.235-.079-.496-.079h-.342v-3.52h1.561c1.677 0 1.732-.006 1.952-.212.214-.199.207-.097.207-3.028 0-2.961.01-2.825-.226-3.047-.063-.058-.534-.315-1.047-.57-.998-.495-1.118-.53-1.412-.406a.897.897 0 0 0-.39.37c-.064.125-.056.516.014.65.096.186.282.313.948.646l.633.317v3.8h-2.24l-.001-4.25c0-4.203-.014-4.722-.138-5.21-.217-.853-.939-1.65-1.795-1.983-.608-.236-.64-.237-4.681-.232-2.027.003-3.792.02-3.923.039m7.934 1.544c.475.162.779.435.959.864l.105.248.01 6.97.011 6.97H5.16l.001-6.81c0-7.417-.008-7.125.225-7.553.211-.388.664-.678 1.174-.751.149-.022 1.787-.035 3.84-.031 3.563.006 3.581.006 3.836.093m-6.177.932c-.905.123-1.564.693-1.804 1.56-.105.376-.109 2.098-.006 2.469.168.609.544 1.086 1.054 1.341.501.251.489.25 2.977.25 2.081 0 2.279-.006 2.498-.074.706-.217 1.163-.635 1.413-1.291.102-.266.106-.308.12-1.315.017-1.142-.011-1.371-.218-1.812-.225-.481-.82-.946-1.393-1.09-.235-.059-4.244-.092-4.641-.038m4.368 1.523a.6.6 0 0 1 .375.453c.028.126.04.494.032.964-.016.865-.043.957-.334 1.114-.157.084-.202.086-2.09.098-1.994.013-2.299-.005-2.49-.146-.2-.147-.219-.242-.232-1.155-.011-.78-.006-.864.068-1.031.063-.144.117-.199.252-.26.163-.074.277-.078 2.239-.079 1.366-.001 2.106.013 2.18.042m-5.809 5.191c-.556.256-.592 1.054-.06 1.325.151.077.233.081 1.622.081 1.567 0 1.579-.001 1.765-.206.332-.365.269-.879-.14-1.156L9.66 12.1l-1.44-.01c-1.332-.009-1.452-.005-1.602.064"
        fill-rule="evenodd" clip-rule="evenodd" fill="#010101" />
</svg>