<svg width="24" height="24" viewBox="0 0 24 24" fill="none" xmlns="http://www.w3.org/2000/svg">
<g clip-path="url(#clip0_3736_40155)">
<path fill-rule="evenodd" clip-rule="evenodd" d="M12 1.75C6.33908 1.75 1.75 6.33908 1.75 12C1.75 17.6609 6.33908 22.25 12 22.25C17.6609 22.25 22.25 17.6609 22.25 12C22.25 6.33908 17.6609 1.75 12 1.75ZM0.25 12C0.25 5.51065 5.51065 0.25 12 0.25C18.4893 0.25 23.75 5.51065 23.75 12C23.75 18.4893 18.4893 23.75 12 23.75C5.51065 23.75 0.25 18.4893 0.25 12Z" fill="#A2A2A2"/>
<path fill-rule="evenodd" clip-rule="evenodd" d="M23.749 11.8505C23.7751 13.8958 23.2667 15.9124 22.2743 17.7009C21.2819 19.4895 19.8398 20.988 18.0906 22.0482C16.3414 23.1085 14.3458 23.6937 12.301 23.7461C10.2562 23.7985 8.23322 23.3163 6.43202 22.347C4.63082 21.3777 3.11385 19.955 2.03114 18.2197C1.81188 17.8682 1.91902 17.4056 2.27045 17.1864C2.62187 16.9671 3.0845 17.0742 3.30376 17.4257C4.24825 18.9395 5.57157 20.1806 7.14283 21.0261C8.71408 21.8716 10.4788 22.2923 12.2626 22.2466C14.0463 22.2009 15.7872 21.6904 17.3131 20.7655C18.839 19.8406 20.097 18.5334 20.9627 16.9732C21.8284 15.4129 22.2719 13.6537 22.2492 11.8696C22.2265 10.0854 21.7384 8.33807 20.8333 6.80038C19.9281 5.26269 18.6372 3.98792 17.0883 3.10216C15.5394 2.21639 13.786 1.7503 12.0017 1.75C11.5875 1.74993 11.2518 1.41409 11.2519 0.999873C11.2519 0.585659 11.5878 0.24993 12.002 0.25C14.0474 0.250346 16.0573 0.784638 17.8329 1.80003C19.6085 2.81543 21.0883 4.27674 22.1259 6.03946C23.1635 7.80217 23.723 9.80522 23.749 11.8505Z" fill="#373737"/>
</g>
<defs>
<clipPath id="clip0_3736_40155">
<rect width="24" height="24" fill="white"/>
</clipPath>
</defs>
</svg>
