<svg width="24" height="24" viewBox="0 0 24 24" fill="none" xmlns="http://www.w3.org/2000/svg">
    <path fill-rule="evenodd" clip-rule="evenodd"
        d="M15.5008 6.15C16.7985 6.15 17.8514 7.20192 17.8516 8.49961C17.8516 9.79748 16.7987 10.8504 15.5008 10.8504C14.2031 10.8502 13.1512 9.79735 13.1512 8.49961C13.1514 7.20205 14.2032 6.15021 15.5008 6.15ZM15.5008 7.35C14.866 7.35021 14.3514 7.86479 14.3512 8.49961C14.3512 9.13461 14.8658 9.65018 15.5008 9.65039C16.1359 9.65039 16.6516 9.13474 16.6516 8.49961C16.6514 7.86466 16.1358 7.35 15.5008 7.35Z"
        fill="#010101" />
    <path fill-rule="evenodd" clip-rule="evenodd"
        d="M15.5008 2.15039C19.0076 2.1506 21.85 4.9939 21.85 8.50078C21.8498 12.0074 19.0074 14.8498 15.5008 14.85C15.089 14.85 14.6856 14.8103 14.2949 14.7352L12.3566 16.6746C12.2442 16.7871 12.0915 16.8503 11.9324 16.8504H9.85V18.9328C9.84986 19.0918 9.78662 19.2446 9.67422 19.357L8.64883 20.3824C8.34888 20.682 7.94214 20.85 7.51797 20.85H4.75C3.8665 20.8498 3.15039 20.1338 3.15039 19.2504V16.4824C3.15051 16.0581 3.3193 15.6515 3.61914 15.3516L9.26523 9.7043C9.19031 9.31418 9.15042 8.91187 9.15039 8.50078C9.15039 4.99377 11.9938 2.15039 15.5008 2.15039ZM15.5008 3.35039C12.6565 3.35039 10.3504 5.65651 10.3504 8.50078C10.3504 8.93317 10.404 9.3523 10.5039 9.75234C10.5549 9.95669 10.4946 10.1729 10.3457 10.3219L4.46758 16.2C4.39264 16.275 4.35051 16.3765 4.35039 16.4824V19.2504C4.35039 19.4711 4.5293 19.6498 4.75 19.65H7.51797C7.62399 19.65 7.72531 19.6079 7.80039 19.5328L8.65 18.6832V16.2504C8.65005 15.9192 8.91884 15.6506 9.25 15.6504H11.684L13.6785 13.6547C13.8274 13.5058 14.0438 13.4468 14.248 13.4977C14.6483 13.5975 15.0683 13.65 15.5008 13.65C18.3447 13.6498 20.6498 11.3447 20.65 8.50078C20.65 5.65665 18.3448 3.3506 15.5008 3.35039Z"
        fill="#010101" />
</svg>