<svg width="24" height="25" viewBox="0 0 24 25" fill="none" xmlns="http://www.w3.org/2000/svg">
<path d="M12.0363 4.5C12.0248 4.50117 12.0134 4.50307 12.0022 4.50569C11.9349 4.51415 11.8731 4.54737 11.829 4.59888C11.7848 4.65039 11.7614 4.71649 11.7634 4.7843V6.95074C11.8546 6.9463 11.944 6.93937 12.0363 6.93937C12.1268 6.93937 12.2198 6.94649 12.3093 6.95074V4.7843C12.3108 4.74752 12.3049 4.7108 12.2918 4.67636C12.2788 4.64193 12.2589 4.61048 12.2334 4.58392C12.2079 4.55736 12.1773 4.53623 12.1435 4.5218C12.1096 4.50738 12.0731 4.49997 12.0363 4.5ZM6.53762 6.76889C6.48594 6.77394 6.43678 6.79361 6.3959 6.82561C6.35502 6.85761 6.32411 6.90061 6.3068 6.94956C6.28949 6.9985 6.2865 7.05137 6.29817 7.10195C6.30985 7.15254 6.3357 7.19876 6.37271 7.23517L7.90802 8.77047C8.03137 8.63463 8.15858 8.50694 8.29468 8.38381L6.75938 6.8485C6.73071 6.81951 6.6959 6.79731 6.65753 6.78353C6.61915 6.76976 6.57818 6.76476 6.53762 6.76889ZM17.4724 6.76889C17.4099 6.77565 17.3517 6.80377 17.3075 6.8485L15.7722 8.38381C15.9075 8.50601 16.0419 8.63001 16.1646 8.76479L17.6942 7.23518C17.7348 7.1954 17.762 7.14391 17.7719 7.08793C17.7819 7.03194 17.7741 6.97424 17.7497 6.92289C17.7253 6.87154 17.6854 6.8291 17.6357 6.80149C17.586 6.77388 17.5289 6.76248 17.4724 6.76889ZM12.0249 7.81517C9.44027 7.81517 7.34498 9.91611 7.34498 12.5007C7.34498 15.0853 9.44009 17.1862 12.0249 17.1862C14.6094 17.1862 16.7104 15.0855 16.7104 12.5007C16.7104 9.91611 14.6094 7.81517 12.0249 7.81517ZM4.24599 12.2278C4.1736 12.2353 4.10717 12.2713 4.06132 12.3278C4.01546 12.3843 3.99394 12.4567 4.00148 12.5291C4.00902 12.6015 4.04501 12.6679 4.10152 12.7138C4.15804 12.7597 4.23046 12.7812 4.30285 12.7736H6.47511C6.47085 12.6845 6.46374 12.5966 6.46374 12.5064C6.46374 12.4142 6.47066 12.3188 6.47511 12.2278H4.30285C4.29338 12.2273 4.28389 12.2273 4.27442 12.2278C4.26495 12.2273 4.25546 12.2273 4.24599 12.2278ZM17.6031 12.2278C17.6075 12.3188 17.6088 12.4142 17.6088 12.5064C17.6088 12.5966 17.6073 12.6845 17.6031 12.7736H19.7695C19.8057 12.7742 19.8417 12.7676 19.8753 12.7541C19.909 12.7407 19.9396 12.7207 19.9654 12.6953C19.9912 12.6699 20.0117 12.6396 20.0257 12.6062C20.0397 12.5728 20.047 12.5369 20.047 12.5007C20.047 12.4645 20.0397 12.4286 20.0257 12.3952C20.0117 12.3618 19.9912 12.3315 19.9654 12.3061C19.9396 12.2807 19.909 12.2607 19.8753 12.2472C19.8417 12.2338 19.8057 12.2272 19.7695 12.2278H17.6031ZM7.90797 16.2309L6.37267 17.7662C6.34728 17.7916 6.32714 17.8217 6.3134 17.8549C6.29966 17.8881 6.29259 17.9236 6.29259 17.9596C6.29259 18.0321 6.32139 18.1016 6.37267 18.1529C6.42394 18.2042 6.49349 18.233 6.566 18.233C6.63852 18.233 6.70806 18.2042 6.75934 18.1529L8.28894 16.6176C8.15392 16.4951 8.03041 16.3659 7.90797 16.2309ZM16.1645 16.2422C16.0427 16.3759 15.912 16.5018 15.7778 16.6232L17.3074 18.1528C17.3587 18.2041 17.4282 18.2329 17.5008 18.2329C17.5733 18.2329 17.6428 18.2041 17.6941 18.1528C17.7454 18.1015 17.7742 18.032 17.7742 17.9595C17.7742 17.8869 17.7454 17.8174 17.6941 17.7661L16.1645 16.2422ZM11.7632 18.0561V20.2226C11.7626 20.2588 11.7692 20.2948 11.7827 20.3284C11.7961 20.362 11.8161 20.3926 11.8415 20.4185C11.8669 20.4443 11.8972 20.4648 11.9306 20.4788C11.9641 20.4928 11.9999 20.5 12.0361 20.5C12.0724 20.5 12.1082 20.4928 12.1416 20.4788C12.175 20.4648 12.2053 20.4443 12.2307 20.4185C12.2561 20.3926 12.2761 20.362 12.2896 20.3284C12.303 20.2948 12.3097 20.2588 12.3091 20.2226V18.0561C12.2197 18.0605 12.1266 18.0674 12.0361 18.0674C11.9439 18.0674 11.8544 18.0605 11.7632 18.0561Z" fill="#373737"/>
</svg>
