<svg width="25" height="24" viewBox="0 0 25 24" fill="none" xmlns="http://www.w3.org/2000/svg">
<path d="M12.2469 1.67681e-05C12.2296 0.00177073 12.2125 0.00462869 12.1957 0.00854623C12.0947 0.0212373 12.0021 0.0710693 11.9359 0.148333C11.8696 0.225596 11.8346 0.324751 11.8374 0.426473V3.67613C11.9742 3.66947 12.1084 3.65907 12.2469 3.65907C12.3826 3.65907 12.5221 3.66974 12.6563 3.67613V0.426473C12.6586 0.371292 12.6497 0.316218 12.6301 0.264563C12.6106 0.212908 12.5808 0.165734 12.5425 0.125893C12.5043 0.0860515 12.4584 0.0543547 12.4076 0.0327186C12.3568 0.0110824 12.3021 -2.35129e-05 12.2469 1.67681e-05ZM3.99881 3.40335C3.9213 3.41093 3.84756 3.44043 3.78624 3.48843C3.72491 3.53643 3.67855 3.60093 3.65258 3.67435C3.62662 3.74777 3.62213 3.82706 3.63964 3.90294C3.65715 3.97883 3.69594 4.04815 3.75145 4.10277L6.05441 6.40572C6.23944 6.20195 6.43025 6.01042 6.63441 5.82572L4.33146 3.52277C4.28844 3.47928 4.23624 3.44598 4.17867 3.42531C4.12111 3.40465 4.05965 3.39715 3.99881 3.40335ZM20.401 3.40335C20.3073 3.41349 20.2199 3.45567 20.1537 3.52277L17.8507 5.82572C18.0537 6.00903 18.2552 6.19503 18.4392 6.39719L20.7336 4.10279C20.7946 4.04311 20.8354 3.96588 20.8503 3.8819C20.8652 3.79792 20.8536 3.71138 20.8169 3.63435C20.7803 3.55732 20.7205 3.49366 20.646 3.45225C20.5714 3.41084 20.4858 3.39373 20.401 3.40335ZM12.2297 4.97277C8.35279 4.97277 5.20985 8.12417 5.20985 12.001C5.20985 15.8779 8.35252 19.0293 12.2297 19.0293C16.1065 19.0293 19.2579 15.8782 19.2579 12.001C19.2579 8.12417 16.1065 4.97277 12.2297 4.97277ZM0.561366 11.5916C0.452783 11.6029 0.35314 11.6569 0.284358 11.7417C0.215576 11.8265 0.183289 11.9351 0.194599 12.0437C0.20591 12.1523 0.259892 12.2519 0.34467 12.3207C0.429448 12.3895 0.538077 12.4218 0.646661 12.4105H3.90505C3.89866 12.2767 3.88799 12.1449 3.88799 12.0096C3.88799 11.8713 3.89837 11.7283 3.90505 11.5916H0.646661C0.632455 11.5909 0.618219 11.5909 0.604013 11.5916C0.589807 11.5909 0.575572 11.5909 0.561366 11.5916ZM20.597 11.5916C20.6037 11.7283 20.6055 11.8713 20.6055 12.0096C20.6055 12.1448 20.6034 12.2767 20.597 12.4105H23.8467C23.901 12.4114 23.9549 12.4014 24.0054 12.3812C24.0558 12.361 24.1018 12.331 24.1405 12.2929C24.1792 12.2548 24.21 12.2094 24.231 12.1593C24.252 12.1092 24.2628 12.0554 24.2628 12.001C24.2628 11.9467 24.252 11.8929 24.231 11.8428C24.21 11.7927 24.1792 11.7473 24.1405 11.7091C24.1018 11.671 24.0558 11.641 24.0054 11.6209C23.9549 11.6007 23.901 11.5907 23.8467 11.5916H20.597ZM6.05434 17.5964L3.75138 19.8993C3.7133 19.9374 3.68309 19.9826 3.66248 20.0324C3.64187 20.0821 3.63126 20.1355 3.63126 20.1893C3.63126 20.2981 3.67447 20.4024 3.75138 20.4793C3.8283 20.5562 3.93261 20.5994 4.04139 20.5994C4.15016 20.5994 4.25447 20.5562 4.33139 20.4793L6.6258 18.1764C6.42326 17.9926 6.238 17.7989 6.05434 17.5964ZM18.4391 17.6133C18.2565 17.8138 18.0603 18.0027 17.8591 18.1848L20.1535 20.4792C20.2304 20.5561 20.3348 20.5993 20.4435 20.5993C20.5523 20.5993 20.6566 20.5561 20.7335 20.4792C20.8104 20.4023 20.8536 20.298 20.8536 20.1892C20.8536 20.0804 20.8104 19.9761 20.7335 19.8992L18.4391 17.6133ZM11.8372 20.3342V23.5839C11.8363 23.6382 11.8462 23.6922 11.8664 23.7426C11.8866 23.793 11.9166 23.839 11.9547 23.8777C11.9928 23.9164 12.0382 23.9472 12.0884 23.9682C12.1385 23.9892 12.1923 24 12.2466 24C12.3009 24 12.3547 23.9892 12.4048 23.9682C12.4549 23.9472 12.5004 23.9164 12.5385 23.8777C12.5766 23.839 12.6066 23.793 12.6268 23.7426C12.647 23.6922 12.6569 23.6382 12.656 23.5839V20.3342C12.5219 20.3407 12.3823 20.3511 12.2466 20.3511C12.1082 20.3511 11.974 20.3407 11.8372 20.3342Z" fill="#373737"/>
</svg>
