<svg width="24" height="24" viewBox="0 0 24 24" fill="none" xmlns="http://www.w3.org/2000/svg">
    <path
        d="M8.619 5.277a.943.943 0 0 0-.191.068c-.039.022-1.005.973-2.148 2.114-1.52 1.517-2.091 2.112-2.124 2.212a.77.77 0 0 0 .113.681c.065.081.175.18.242.22.117.068.454.071 6.969.069 7.475-.003 7 .013 7.211-.237a.746.746 0 0 0-.268-1.168c-.156-.071-.407-.074-5.941-.075L6.704 9.16l1.362-1.37c1.472-1.479 1.481-1.491 1.445-1.873a.74.74 0 0 0-.892-.64m2.661 8.081c-4.968.016-6.721.034-6.78.068a.845.845 0 0 0-.379.663c.002.303.253.627.55.709.099.028 2.063.042 5.887.042h5.738l-1.362 1.37c-1.472 1.479-1.481 1.491-1.445 1.873a.71.71 0 0 0 .728.648.842.842 0 0 0 .316-.057c.06-.032 1.045-.992 2.188-2.135 1.5-1.498 2.091-2.115 2.124-2.213a.754.754 0 0 0-.671-.98c-.107-.006-3.209-.001-6.894.012"
        fill-rule="evenodd" clip-rule="evenodd" fill="#010101" />
</svg>