<svg width="25" height="24" viewBox="0 0 25 24" fill="none" xmlns="http://www.w3.org/2000/svg">
<path fill-rule="evenodd" clip-rule="evenodd" d="M8.50467 2.93423C8.50467 1.50705 9.66162 0.350098 11.0888 0.350098H13.8205C15.2477 0.350098 16.4047 1.50706 16.4047 2.93424C16.4047 3.92275 17.4748 4.5406 18.3309 4.04632C19.5669 3.33272 21.1474 3.75618 21.861 4.99218L23.2268 7.35787C23.9404 8.59386 23.5169 10.1743 22.2809 10.8879C21.4248 11.3822 21.4248 12.6179 22.2809 13.1121C23.5169 13.8257 23.9404 15.4062 23.2268 16.6422L21.861 19.0079C21.1474 20.2439 19.5669 20.6673 18.3309 19.9537C17.4748 19.4595 16.4047 20.0773 16.4047 21.0659C16.4047 22.4931 15.2477 23.6501 13.8205 23.6501H11.0889C9.66164 23.6501 8.50467 22.4931 8.50467 21.0659C8.50467 20.0773 7.43452 19.4595 6.57844 19.9537C5.34246 20.6673 3.76202 20.2439 3.04842 19.0079L1.68258 16.6422C0.968984 15.4062 1.39246 13.8257 2.62845 13.1121C3.48456 12.6179 3.48456 11.3822 2.62845 10.8879C1.39247 10.1743 0.968985 8.59386 1.68258 7.35787L3.04842 4.99216C3.76202 3.75618 5.34248 3.33271 6.57845 4.0463C7.43455 4.54057 8.50467 3.92274 8.50467 2.93423ZM11.0888 1.6501C10.3796 1.6501 9.80467 2.22502 9.80467 2.93423C9.80467 4.92351 7.65119 6.16676 5.92845 5.17214C5.31425 4.81752 4.52886 5.02797 4.17426 5.64216L2.80842 8.00787C2.4538 8.62208 2.66425 9.40746 3.27845 9.76207C5.00123 10.7567 5.00123 13.2433 3.27845 14.238C2.66424 14.5926 2.4538 15.378 2.80841 15.9922L4.17426 18.3579C4.52886 18.9721 5.31424 19.1825 5.92844 18.8279C7.65123 17.8333 9.80467 19.0766 9.80467 21.0659C9.80467 21.7751 10.3796 22.3501 11.0889 22.3501H13.8205C14.5297 22.3501 15.1047 21.7751 15.1047 21.0659C15.1047 19.0766 17.2581 17.8332 18.9809 18.8279C19.5951 19.1825 20.3805 18.9721 20.7351 18.3579L22.101 15.9922C22.4556 15.378 22.2451 14.5926 21.6309 14.238C19.9082 13.2433 19.9082 10.7567 21.6309 9.76207C22.2451 9.40746 22.4556 8.62208 22.101 8.00787L20.7351 5.64218C20.3805 5.02798 19.5951 4.81753 18.9809 5.17215C17.2582 6.16678 15.1047 4.92353 15.1047 2.93424C15.1047 2.22503 14.5297 1.6501 13.8205 1.6501H11.0888ZM12.4547 8.2501C10.3836 8.2501 8.70467 9.92903 8.70467 12.0001C8.70467 14.0712 10.3836 15.7501 12.4547 15.7501C14.5257 15.7501 16.2047 14.0712 16.2047 12.0001C16.2047 9.92903 14.5257 8.2501 12.4547 8.2501ZM7.40467 12.0001C7.40467 9.21106 9.66563 6.9501 12.4547 6.9501C15.2437 6.9501 17.5047 9.21106 17.5047 12.0001C17.5047 14.7891 15.2437 17.0501 12.4547 17.0501C9.66563 17.0501 7.40467 14.7891 7.40467 12.0001Z" fill="#373737"/>
</svg>
