<svg xmlns="http://www.w3.org/2000/svg" width="16" height="16" viewBox="0 0 16 16" fill="none">
<g id="Group">
<path id="Path" d="M9.4901 6.50857C10.3139 7.33234 10.3139 8.66792 9.4901 9.49169C8.66633 10.3155 7.33075 10.3155 6.50698 9.49169C5.68322 8.66792 5.68322 7.33234 6.50698 6.50857C7.33075 5.68481 8.66634 5.68481 9.4901 6.50857" stroke="#373737" stroke-width="0.9" stroke-linecap="round" stroke-linejoin="round"/>
<path id="Path_2" fill-rule="evenodd" clip-rule="evenodd" d="M10.4024 1.35142L10.8943 1.51511C11.3448 1.66529 11.6494 2.08717 11.6494 2.5622V3.26843C11.6494 3.86918 12.1287 4.3594 12.7294 4.37206L13.4365 4.38724C13.8457 4.39568 14.217 4.63109 14.4001 4.99728L14.6321 5.46134C14.8447 5.88659 14.7612 6.3996 14.4254 6.73541L13.9259 7.23491C13.5015 7.65932 13.4939 8.34529 13.909 8.77898L14.3984 9.2903C14.6819 9.58645 14.7781 10.0142 14.6481 10.4032L14.4844 10.8951C14.3343 11.3457 13.9124 11.6503 13.4373 11.6503H12.7311C12.1304 11.6503 11.6401 12.1295 11.6275 12.7303L11.6123 13.4373C11.6039 13.8466 11.3685 14.2178 11.0023 14.4009L10.5382 14.6329C10.113 14.8456 9.59995 14.762 9.26414 14.4262L8.76464 13.9267C8.34023 13.5023 7.65426 13.4947 7.22057 13.9098L6.70925 14.3992C6.4131 14.6827 5.98531 14.7789 5.59634 14.649L5.10443 14.4853C4.65387 14.3351 4.34927 13.9132 4.34927 13.4382V12.732C4.34927 12.1312 3.87002 11.641 3.26927 11.6283L2.5622 11.6131C2.15298 11.6047 1.78173 11.3693 1.59864 11.0031L1.36661 10.539C1.15398 10.1138 1.23751 9.6008 1.57333 9.26498L2.07283 8.76548C2.49724 8.34107 2.50483 7.6551 2.0897 7.22141L1.60033 6.7101C1.31598 6.4131 1.21979 5.98447 1.34973 5.59634L1.51342 5.10443C1.66361 4.65387 2.08548 4.34927 2.56052 4.34927H3.26674C3.86749 4.34927 4.35771 3.87002 4.37037 3.26927L4.38556 2.5622C4.39568 2.15298 4.63024 1.78173 4.99643 1.59864L5.4605 1.36661C5.88575 1.15398 6.39875 1.23751 6.73457 1.57333L7.23407 2.07283C7.65848 2.49724 8.34445 2.50483 8.77814 2.0897L9.28945 1.60033C9.58561 1.31767 10.0142 1.22148 10.4024 1.35142V1.35142Z" stroke="#373737" stroke-width="0.9" stroke-linecap="round" stroke-linejoin="round"/>
</g>
</svg>