<svg xmlns="http://www.w3.org/2000/svg" width="24" height="24" viewBox="0 0 24 24" fill="none">
<g id="Group">
<path id="Vector" d="M11.125 16.375H7.625C6.41458 16.375 5.38267 15.9483 4.52925 15.0949C3.67583 14.2415 3.24942 13.2098 3.25 12C3.25 10.7896 3.67671 9.75767 4.53013 8.90425C5.38354 8.05083 6.41517 7.62442 7.625 7.625H11.125V9.375H7.625C6.89583 9.375 6.27604 9.63021 5.76563 10.1406C5.25521 10.651 5 11.2708 5 12C5 12.7292 5.25521 13.349 5.76563 13.8594C6.27604 14.3698 6.89583 14.625 7.625 14.625H11.125V16.375ZM8.5 12.875V11.125H15.5V12.875H8.5ZM12.875 16.375V14.625H16.375C17.1042 14.625 17.724 14.3698 18.2344 13.8594C18.7448 13.349 19 12.7292 19 12C19 11.2708 18.7448 10.651 18.2344 10.1406C17.724 9.63021 17.1042 9.375 16.375 9.375H12.875V7.625H16.375C17.5854 7.625 18.6173 8.05171 19.4707 8.90513C20.3242 9.75854 20.7506 10.7902 20.75 12C20.75 13.2104 20.3233 14.2423 19.4699 15.0958C18.6165 15.9492 17.5848 16.3756 16.375 16.375H12.875Z" fill="#A2A2A2"/>
</g>
</svg>