<svg width="24" height="25" viewBox="0 0 24 25" fill="none" xmlns="http://www.w3.org/2000/svg">
<path fill-rule="evenodd" clip-rule="evenodd" d="M10.3143 10.9429C11.7029 10.9429 12.8286 9.81717 12.8286 8.42857C12.8286 7.03997 11.7029 5.91429 10.3143 5.91429C8.92568 5.91429 7.8 7.03997 7.8 8.42857C7.8 9.81717 8.92568 10.9429 10.3143 10.9429ZM10.3143 11.8571C12.2078 11.8571 13.7429 10.3221 13.7429 8.42857C13.7429 6.53502 12.2078 5 10.3143 5C8.42074 5 6.88571 6.53502 6.88571 8.42857C6.88571 10.3221 8.42074 11.8571 10.3143 11.8571Z" fill="#010101"/>
<path fill-rule="evenodd" clip-rule="evenodd" d="M13.7429 20.0857C15.1315 20.0857 16.2571 18.96 16.2571 17.5714C16.2571 16.1828 15.1315 15.0571 13.7429 15.0571C12.3543 15.0571 11.2286 16.1828 11.2286 17.5714C11.2286 18.96 12.3543 20.0857 13.7429 20.0857ZM13.7429 21C15.6364 21 17.1714 19.465 17.1714 17.5714C17.1714 15.6779 15.6364 14.1429 13.7429 14.1429C11.8493 14.1429 10.3143 15.6779 10.3143 17.5714C10.3143 19.465 11.8493 21 13.7429 21Z" fill="#010101"/>
<path fill-rule="evenodd" clip-rule="evenodd" d="M3 8.42857C3 8.1761 3.20467 7.97143 3.45714 7.97143H6.88571C7.13819 7.97143 7.34286 8.1761 7.34286 8.42857C7.34286 8.68104 7.13819 8.88571 6.88571 8.88571H3.45714C3.20467 8.88571 3 8.68104 3 8.42857Z" fill="#010101"/>
<path fill-rule="evenodd" clip-rule="evenodd" d="M16.7143 17.5714C16.7143 17.319 16.919 17.1143 17.1714 17.1143H20.6C20.8525 17.1143 21.0571 17.319 21.0571 17.5714C21.0571 17.8239 20.8525 18.0286 20.6 18.0286H17.1714C16.919 18.0286 16.7143 17.8239 16.7143 17.5714Z" fill="#010101"/>
<path fill-rule="evenodd" clip-rule="evenodd" d="M14.4286 8.42857C14.4286 8.1761 14.6332 7.97143 14.8857 7.97143H20.6C20.8525 7.97143 21.0571 8.1761 21.0571 8.42857C21.0571 8.68104 20.8525 8.88571 20.6 8.88571H14.8857C14.6332 8.88571 14.4286 8.68104 14.4286 8.42857Z" fill="#010101"/>
<path fill-rule="evenodd" clip-rule="evenodd" d="M3 17.5714C3 17.319 3.20467 17.1143 3.45714 17.1143H9.17143C9.4239 17.1143 9.62857 17.319 9.62857 17.5714C9.62857 17.8239 9.4239 18.0286 9.17143 18.0286H3.45714C3.20467 18.0286 3 17.8239 3 17.5714Z" fill="#010101"/>
</svg>
