<svg width="32" height="32" viewBox="0 0 32 32" fill="none" xmlns="http://www.w3.org/2000/svg">
<circle cx="16" cy="16" r="8" fill="white"/>
<path d="M16 8C11.584 8 8 11.584 8 16C8 20.416 11.584 24 16 24C20.416 24 24 20.416 24 16C24 11.584 20.416 8 16 8ZM13.832 19.432L10.96 16.56C10.8859 16.4859 10.8272 16.398 10.7871 16.3012C10.747 16.2045 10.7264 16.1007 10.7264 15.996C10.7264 15.8913 10.747 15.7875 10.7871 15.6908C10.8272 15.594 10.8859 15.5061 10.96 15.432C11.0341 15.3579 11.122 15.2992 11.2188 15.2591C11.3155 15.219 11.4193 15.1984 11.524 15.1984C11.6287 15.1984 11.7325 15.219 11.8292 15.2591C11.926 15.2992 12.0139 15.3579 12.088 15.432L14.4 17.736L19.904 12.232C20.0536 12.0824 20.2565 11.9984 20.468 11.9984C20.6795 11.9984 20.8824 12.0824 21.032 12.232C21.1816 12.3816 21.2656 12.5845 21.2656 12.796C21.2656 13.0075 21.1816 13.2104 21.032 13.36L14.96 19.432C14.886 19.5062 14.7981 19.565 14.7013 19.6051C14.6045 19.6453 14.5008 19.666 14.396 19.666C14.2912 19.666 14.1875 19.6453 14.0907 19.6051C13.9939 19.565 13.906 19.5062 13.832 19.432Z" fill="#0AA65B"/>
</svg>
