<svg width="24" height="24" viewBox="0 0 24 24" fill="none" xmlns="http://www.w3.org/2000/svg">
<path fill-rule="evenodd" clip-rule="evenodd" d="M11.5331 17.1733L6.86648 12.58C6.74006 12.4562 6.66798 12.2873 6.66611 12.1104C6.66423 11.9335 6.73271 11.7631 6.85648 11.6367C6.98025 11.5102 7.14916 11.4382 7.32607 11.4363C7.50298 11.4344 7.67339 11.5029 7.79981 11.6267L11.3331 15.1V2.66667C11.3331 2.48986 11.4034 2.32029 11.5284 2.19526C11.6534 2.07024 11.823 2 11.9998 2C12.1766 2 12.3462 2.07024 12.4712 2.19526C12.5962 2.32029 12.6665 2.48986 12.6665 2.66667V15.1L16.1998 11.6267C16.3262 11.5029 16.4966 11.4344 16.6736 11.4363C16.8505 11.4382 17.0194 11.5102 17.1431 11.6367C17.2669 11.7631 17.3354 11.9335 17.3335 12.1104C17.3316 12.2873 17.2596 12.4562 17.1331 12.58L12.4665 17.1733C12.3419 17.2955 12.1743 17.3639 11.9998 17.3639C11.8253 17.3639 11.6578 17.2955 11.5331 17.1733ZM17.7 5.3331H20.6133C20.7929 5.32591 20.972 5.35508 21.14 5.41887C21.3079 5.48265 21.4613 5.57972 21.5908 5.70425C21.7203 5.82879 21.8233 5.97822 21.8937 6.14356C21.964 6.30891 22.0001 6.48676 22 6.66643V19.9998C22.0001 20.1794 21.964 20.3573 21.8937 20.5226C21.8233 20.688 21.7203 20.8374 21.5908 20.9619C21.4613 21.0865 21.3079 21.1835 21.14 21.2473C20.972 21.3111 20.7929 21.3403 20.6133 21.3331H3.38667C3.20714 21.3403 3.028 21.3111 2.86003 21.2473C2.69206 21.1835 2.5387 21.0865 2.40919 20.9619C2.27967 20.8374 2.17666 20.688 2.10635 20.5226C2.03603 20.3573 1.99986 20.1794 2 19.9998V6.66643C1.99986 6.48676 2.03603 6.30891 2.10635 6.14356C2.17666 5.97822 2.27967 5.82879 2.40919 5.70425C2.5387 5.57972 2.69206 5.48265 2.86003 5.41887C3.028 5.35508 3.20714 5.32591 3.38667 5.3331H6.25333C6.43015 5.3331 6.59971 5.40334 6.72474 5.52836C6.84976 5.65338 6.92 5.82295 6.92 5.99977C6.92 6.17658 6.84976 6.34615 6.72474 6.47117C6.59971 6.59619 6.43015 6.66643 6.25333 6.66643H3.33333V19.9998H20.6667V6.66643H17.7C17.5232 6.66643 17.3536 6.59619 17.2286 6.47117C17.1036 6.34615 17.0333 6.17658 17.0333 5.99977C17.0333 5.82295 17.1036 5.65338 17.2286 5.52836C17.3536 5.40334 17.5232 5.3331 17.7 5.3331Z" fill="#00A9BB"/>
</svg>
