<svg width="16" height="16" viewBox="0 0 16 16" fill="none" xmlns="http://www.w3.org/2000/svg">
<circle cx="8" cy="8" r="8" fill="#F40000"/>
<path d="M7.83333 3C8.05435 3 8.26631 3.0878 8.42259 3.24408C8.57887 3.40036 8.66667 3.61232 8.66667 3.83333V8.83333C8.66667 9.05435 8.57887 9.26631 8.42259 9.42259C8.26631 9.57887 8.05435 9.66667 7.83333 9.66667C7.61232 9.66667 7.40036 9.57887 7.24408 9.42259C7.0878 9.26631 7 9.05435 7 8.83333V3.83333C7 3.61232 7.0878 3.40036 7.24408 3.24408C7.40036 3.0878 7.61232 3 7.83333 3ZM7.83333 11.3333C7.61232 11.3333 7.40036 11.4211 7.24408 11.5774C7.0878 11.7337 7 11.9457 7 12.1667C7 12.3877 7.0878 12.5996 7.24408 12.7559C7.40036 12.9122 7.61232 13 7.83333 13C8.05435 13 8.26631 12.9122 8.42259 12.7559C8.57887 12.5996 8.66667 12.3877 8.66667 12.1667C8.66667 11.9457 8.57887 11.7337 8.42259 11.5774C8.26631 11.4211 8.05435 11.3333 7.83333 11.3333Z" fill="white"/>
</svg>
