<svg width="20" height="20" viewBox="0 0 20 20" fill="none" xmlns="http://www.w3.org/2000/svg">
<path fill-rule="evenodd" clip-rule="evenodd" d="M4.42898 2.26427C4.02713 2.26427 3.64175 2.43189 3.3576 2.73024C3.07346 3.02859 2.91383 3.43325 2.91383 3.85518V14.9915C2.7129 14.9915 2.52021 15.0754 2.37814 15.2245C2.23607 15.3737 2.15625 15.576 2.15625 15.787C2.15625 15.998 2.23607 16.2003 2.37814 16.3495C2.52021 16.4987 2.7129 16.5825 2.91383 16.5825H12.0047C12.2057 16.5825 12.3983 16.4987 12.5404 16.3495C12.6825 16.2003 12.7623 15.998 12.7623 15.787C12.7623 15.576 12.6825 15.3737 12.5404 15.2245C12.3983 15.0754 12.2057 14.9915 12.0047 14.9915V11.0143H12.7623V13.0029C12.7623 13.5303 12.9619 14.0361 13.317 14.4091C13.6722 14.782 14.1539 14.9915 14.6562 14.9915C15.1586 14.9915 15.6403 14.782 15.9955 14.4091C16.3506 14.0361 16.5502 13.5303 16.5502 13.0029V8.16177C16.5501 7.73987 16.3904 7.33529 16.1062 7.037L14.0555 4.88371C13.9856 4.80773 13.902 4.74713 13.8096 4.70544C13.7172 4.66376 13.6178 4.64181 13.5172 4.64089C13.4166 4.63998 13.3168 4.6601 13.2237 4.7001C13.1306 4.74009 13.046 4.79916 12.9749 4.87385C12.9038 4.94853 12.8475 5.03735 12.8094 5.13511C12.7713 5.23287 12.7522 5.33761 12.753 5.44323C12.7539 5.54885 12.7748 5.65323 12.8145 5.75028C12.8542 5.84733 12.9119 5.9351 12.9843 6.00848L13.8176 6.88427C13.65 7.12095 13.5483 7.40193 13.524 7.6958C13.4997 7.98966 13.5538 8.28482 13.6801 8.54829C13.8064 8.81175 14.0001 9.03313 14.2393 9.18767C14.4786 9.3422 14.7541 9.42381 15.035 9.42337L15.0358 13.0029C15.0358 13.1084 14.9959 13.2096 14.9249 13.2841C14.8538 13.3587 14.7575 13.4006 14.657 13.4006C14.5565 13.4006 14.4602 13.3587 14.3892 13.2841C14.3181 13.2096 14.2782 13.1084 14.2782 13.0029V11.0143C14.2782 10.5923 14.1186 10.1877 13.8344 9.88933C13.5503 9.59098 13.1649 9.42337 12.7631 9.42337H12.0055V3.85518C12.0055 3.43325 11.8459 3.02859 11.5617 2.73024C11.2776 2.43189 10.8922 2.26427 10.4903 2.26427H4.42898ZM10.4896 7.83246V3.85518H4.42898V7.83246H10.4896Z" fill="#7A7A7A"/>
</svg>
