<svg width="49" height="48" viewBox="0 0 49 48" fill="none" xmlns="http://www.w3.org/2000/svg">
<path d="M13.4667 13C13.4667 11.8126 14.4293 10.85 15.6167 10.85H32.6525H33.9047H34.4348L32.7308 12.6511C32.4848 12.9111 32.2814 13.2084 32.1284 13.532L32.8967 13.8955L32.1284 13.532C31.9138 13.9856 31.8025 14.4811 31.8025 14.9829V17.0589V24.1177V35.2354C31.8025 36.4228 30.8399 37.3854 29.6525 37.3854H15.6167C14.4293 37.3854 13.4667 36.4228 13.4667 35.2354V13Z" fill="white" stroke="black" stroke-width="1.7"/>
<path fill-rule="evenodd" clip-rule="evenodd" d="M15.9556 17.7089C15.9556 17.2395 16.3361 16.8589 16.8056 16.8589H26.2746C26.744 16.8589 27.1246 17.2395 27.1246 17.7089C27.1246 18.1784 26.744 18.5589 26.2746 18.5589H16.8056C16.3361 18.5589 15.9556 18.1784 15.9556 17.7089ZM15.9556 20.6606C15.9556 20.1912 16.3361 19.8106 16.8056 19.8106H24.8784C25.3479 19.8106 25.7284 20.1912 25.7284 20.6606C25.7284 21.1301 25.3479 21.5106 24.8784 21.5106H16.8056C16.3361 21.5106 15.9556 21.1301 15.9556 20.6606ZM16.8056 22.7611C16.3361 22.7611 15.9556 23.1416 15.9556 23.6111C15.9556 24.0805 16.3361 24.4611 16.8056 24.4611H23.4823C23.9518 24.4611 24.3323 24.0805 24.3323 23.6111C24.3323 23.1416 23.9518 22.7611 23.4823 22.7611H16.8056Z" fill="black"/>
<path d="M35.1567 10.75C35.8875 10.75 36.4569 11.3838 36.3789 12.1104L36.1276 14.4523C36.0549 15.13 36.2752 15.8052 36.7307 16.3089H32.5674V15.2521C32.5674 14.017 32.9461 12.8121 33.6518 11.7995L34.0318 11.3978C34.2519 11.1652 34.5087 10.9701 34.7918 10.8205L34.8806 10.7736C34.9099 10.7581 34.9426 10.75 34.9758 10.75H35.1567Z" fill="white" stroke="black" stroke-width="1.5"/>
<mask id="path-4-inside-1_1151_16046" fill="white">
<path fill-rule="evenodd" clip-rule="evenodd" d="M9.77686 32.0589C9.50071 32.0589 9.27686 32.2827 9.27686 32.5589V33.2354C9.27686 35.5999 10.9182 37.5811 13.1236 38.1017V38.2354H28.8953C27.5231 36.8584 26.4569 34.8674 27.0606 32.8099C27.1651 32.4536 26.9202 32.0589 26.5488 32.0589H26.0057C26.0046 32.0589 26.0036 32.0589 26.0025 32.0589H9.77686Z"/>
</mask>
<path fill-rule="evenodd" clip-rule="evenodd" d="M9.77686 32.0589C9.50071 32.0589 9.27686 32.2827 9.27686 32.5589V33.2354C9.27686 35.5999 10.9182 37.5811 13.1236 38.1017V38.2354H28.8953C27.5231 36.8584 26.4569 34.8674 27.0606 32.8099C27.1651 32.4536 26.9202 32.0589 26.5488 32.0589H26.0057C26.0046 32.0589 26.0036 32.0589 26.0025 32.0589H9.77686Z" fill="white"/>
<path d="M13.1236 38.1017H14.7236V36.8355L13.4913 36.5445L13.1236 38.1017ZM13.1236 38.2354H11.5236V39.8354H13.1236V38.2354ZM28.8953 38.2354V39.8354H32.7484L30.0286 37.106L28.8953 38.2354ZM27.0606 32.8099L25.5253 32.3594V32.3594L27.0606 32.8099ZM26.0057 32.0589L25.9808 33.6587L25.9933 33.6589H26.0057V32.0589ZM10.8769 32.5589C10.8769 33.1664 10.3844 33.6589 9.77686 33.6589V30.4589C8.61706 30.4589 7.67686 31.3991 7.67686 32.5589H10.8769ZM10.8769 33.2354V32.5589H7.67686V33.2354H10.8769ZM13.4913 36.5445C11.9916 36.1905 10.8769 34.8412 10.8769 33.2354H7.67686C7.67686 36.3586 9.84473 38.9716 12.756 39.6589L13.4913 36.5445ZM14.7236 38.2354V38.1017H11.5236V38.2354H14.7236ZM28.8953 36.6354H13.1236V39.8354H28.8953V36.6354ZM25.5253 32.3594C24.68 35.2403 26.216 37.8134 27.7619 39.3648L30.0286 37.106C28.8302 35.9033 28.2337 34.4945 28.5958 33.2604L25.5253 32.3594ZM26.5488 33.6589C26.124 33.6589 25.807 33.4231 25.6481 33.1825C25.4974 32.9543 25.4379 32.6574 25.5253 32.3594L28.5958 33.2604C28.9406 32.0855 28.1933 30.4589 26.5488 30.4589V33.6589ZM26.0057 33.6589H26.5488V30.4589H26.0057V33.6589ZM26.0025 33.6589C25.9953 33.6589 25.9881 33.6588 25.9808 33.6587L26.0305 30.4591C26.0212 30.4589 26.0118 30.4589 26.0025 30.4589V33.6589ZM9.77686 33.6589H26.0025V30.4589H9.77686V33.6589Z" fill="black" mask="url(#path-4-inside-1_1151_16046)"/>
<path d="M18.7031 34.6546C18.7031 37.1754 16.6036 39.2501 13.9746 39.2501C11.3456 39.2501 9.24609 37.1754 9.24609 34.6546C9.24609 32.1338 11.3456 30.0591 13.9746 30.0591C16.6036 30.0591 18.7031 32.1338 18.7031 34.6546Z" fill="white" stroke="black" stroke-width="1.5"/>
<path fill-rule="evenodd" clip-rule="evenodd" d="M14.4446 32.5818C14.4446 32.2504 14.176 31.9818 13.8446 31.9818C13.5133 31.9818 13.2446 32.2504 13.2446 32.5818V35.0365C13.2446 35.1758 13.2921 35.304 13.3718 35.4059C13.405 35.5448 13.4764 35.674 13.5825 35.7688L15.0682 37.0962C15.3153 37.317 15.6569 37.2675 15.8312 36.9857C16.0054 36.7038 15.9464 36.2963 15.6993 36.0756L14.4446 34.9546V32.5818Z" fill="black"/>
</svg>
