<svg width="49" height="48" viewBox="0 0 49 48" fill="none" xmlns="http://www.w3.org/2000/svg">
<path d="M12.776 13C12.776 11.8402 13.7162 10.9 14.876 10.9H32.1534H33.4207H33.8353L32.2066 12.5867L32.854 13.2119L32.2066 12.5867C31.9559 12.8464 31.7482 13.1443 31.5912 13.4694C31.3689 13.9299 31.2534 14.4347 31.2534 14.9462V17V24V35C31.2534 36.1598 30.3132 37.1 29.1534 37.1H14.876C13.7162 37.1 12.776 36.1598 12.776 35V13Z" fill="white" stroke="black" stroke-width="1.8"/>
<path fill-rule="evenodd" clip-rule="evenodd" d="M15.2549 17.6375C15.2549 17.1681 15.6354 16.7875 16.1049 16.7875H25.7086C26.178 16.7875 26.5586 17.1681 26.5586 17.6375C26.5586 18.107 26.178 18.4875 25.7086 18.4875H16.1049C15.6354 18.4875 15.2549 18.107 15.2549 17.6375ZM15.2549 20.5646C15.2549 20.0952 15.6354 19.7146 16.1049 19.7146H24.2956C24.7651 19.7146 25.1456 20.0952 25.1456 20.5646C25.1456 21.034 24.7651 21.4146 24.2956 21.4146H16.1049C15.6354 21.4146 15.2549 21.034 15.2549 20.5646ZM16.1049 22.6405C15.6354 22.6405 15.2549 23.0211 15.2549 23.4905C15.2549 23.9599 15.6354 24.3405 16.1049 24.3405H22.8827C23.3521 24.3405 23.7327 23.9599 23.7327 23.4905C23.7327 23.0211 23.3521 22.6405 22.8827 22.6405H16.1049Z" fill="black"/>
<path d="M34.6882 10.75C35.4316 10.75 36.0104 11.3956 35.9295 12.1347L35.6809 14.4039C35.6071 15.0779 35.8258 15.7495 36.2784 16.25H32.0586V15.2232C32.0586 13.9938 32.4415 12.7954 33.1534 11.7942L33.5379 11.396C33.7611 11.1648 34.0204 10.9716 34.3058 10.8239L34.4009 10.7746L34.0561 10.1086L34.4009 10.7746C34.4321 10.7584 34.4667 10.75 34.5018 10.75H34.6882Z" fill="white" stroke="black" stroke-width="1.5"/>
<mask id="path-4-inside-1_1151_16048" fill="white">
<path fill-rule="evenodd" clip-rule="evenodd" d="M8.99609 31.875C8.71995 31.875 8.49609 32.0989 8.49609 32.375V33C8.49609 35.3809 10.1603 37.3732 12.3889 37.877V38H13.4961H25.6259H28.3507C26.9646 36.637 25.8869 34.6674 26.4905 32.6312C26.5965 32.2734 26.3515 31.875 25.9783 31.875H25.4259H12.3889H8.99609Z"/>
</mask>
<path fill-rule="evenodd" clip-rule="evenodd" d="M8.99609 31.875C8.71995 31.875 8.49609 32.0989 8.49609 32.375V33C8.49609 35.3809 10.1603 37.3732 12.3889 37.877V38H13.4961H25.6259H28.3507C26.9646 36.637 25.8869 34.6674 26.4905 32.6312C26.5965 32.2734 26.3515 31.875 25.9783 31.875H25.4259H12.3889H8.99609Z" fill="white"/>
<path d="M12.3889 37.877H13.9889V36.5983L12.7417 36.3164L12.3889 37.877ZM12.3889 38H10.7889V39.6H12.3889V38ZM28.3507 38V39.6H32.2599L29.4725 36.8591L28.3507 38ZM26.4905 32.6312L24.9564 32.1765V32.1765L26.4905 32.6312ZM10.0961 32.375C10.0961 32.9825 9.60361 33.475 8.99609 33.475V30.275C7.8363 30.275 6.89609 31.2152 6.89609 32.375H10.0961ZM10.0961 33V32.375H6.89609V33H10.0961ZM12.7417 36.3164C11.2265 35.9738 10.0961 34.617 10.0961 33H6.89609C6.89609 36.1448 9.09405 38.7725 12.0361 39.4376L12.7417 36.3164ZM13.9889 38V37.877H10.7889V38H13.9889ZM13.4961 36.4H12.3889V39.6H13.4961V36.4ZM25.6259 36.4H13.4961V39.6H25.6259V36.4ZM28.3507 36.4H25.6259V39.6H28.3507V36.4ZM24.9564 32.1765C24.1041 35.052 25.6716 37.6096 27.2289 39.1409L29.4725 36.8591C28.2576 35.6645 27.6697 34.2829 28.0245 33.0859L24.9564 32.1765ZM25.9783 33.475C25.5507 33.475 25.2337 33.2365 25.0762 32.9964C24.927 32.769 24.8684 32.4734 24.9564 32.1765L28.0245 33.0859C28.3715 31.9152 27.6329 30.275 25.9783 30.275V33.475ZM25.4259 33.475H25.9783V30.275H25.4259V33.475ZM12.3889 33.475H25.4259V30.275H12.3889V33.475ZM8.99609 33.475H12.3889V30.275H8.99609V33.475Z" fill="black" mask="url(#path-4-inside-1_1151_16048)"/>
<ellipse cx="34.1242" cy="27" rx="5.91425" ry="6" fill="white"/>
<path fill-rule="evenodd" clip-rule="evenodd" d="M39.3594 29.7915C39.512 29.497 39.3609 29.1458 39.0541 29.0201C38.7429 28.8926 38.3906 29.0459 38.2276 29.3401C37.7776 30.1524 37.1005 30.8176 36.2758 31.2475C35.2711 31.7713 34.1144 31.9111 33.0166 31.6415C31.9188 31.3718 30.9531 30.7107 30.2959 29.7788C29.6386 28.8469 29.3336 27.7062 29.4365 26.5651C29.5393 25.424 30.0432 24.3584 30.8562 23.5629C31.6692 22.7673 32.737 22.2949 33.8648 22.2317C34.9926 22.1686 36.1052 22.5189 36.9995 23.2188C37.5255 23.6305 37.9555 24.1471 38.2663 24.7311L37.5907 24.9643C37.3561 25.0453 37.3133 25.3607 37.5182 25.4989L39.328 26.7199C39.4917 26.8303 39.7161 26.7529 39.7794 26.5641L40.4796 24.4766C40.5588 24.2403 40.3353 24.0169 40.1007 24.0979L39.4217 24.3323C39.0259 23.5233 38.452 22.8092 37.7367 22.2494C36.6131 21.37 35.2152 20.9298 33.7983 21.0091C32.3813 21.0885 31.0397 21.6821 30.0183 22.6816C28.9969 23.6811 28.3638 25.0199 28.2345 26.4536C28.1053 27.8873 28.4885 29.3204 29.3143 30.4913C30.1401 31.6621 31.3533 32.4928 32.7326 32.8315C34.1119 33.1703 35.5652 32.9946 36.8274 32.3366C37.9135 31.7704 38.7958 30.8795 39.3594 29.7915Z" fill="black"/>
<path fill-rule="evenodd" clip-rule="evenodd" d="M34.3354 24.5C34.3354 24.2239 34.1116 24 33.8354 24C33.5593 24 33.3354 24.2239 33.3354 24.5V27.6022C33.3354 27.7092 33.3691 27.8084 33.4264 27.8898C33.4578 27.9861 33.511 28.0745 33.5841 28.1424L35.4213 29.8491C35.6236 30.037 35.902 29.997 36.0432 29.7596C36.1843 29.5223 36.1347 29.1775 35.9324 28.9896L34.3354 27.5061V24.5Z" fill="black"/>
</svg>
