<svg width="32" height="56" viewBox="0 0 32 56" fill="none" xmlns="http://www.w3.org/2000/svg">
<path fill-rule="evenodd" clip-rule="evenodd" d="M16.5782 28L24.8344 22.5819C25.1161 22.3971 25.2857 22.0828 25.2857 21.7459V13C25.2857 12.4477 24.838 12 24.2857 12H8C7.44772 12 7 12.4477 7 13V21.7459C7 22.0828 7.16966 22.3971 7.45135 22.5819L15.7075 28L7.45134 33.4181C7.16966 33.6029 7 33.9172 7 34.2541V43C7 43.5523 7.44772 44 8 44H24.2857C24.838 44 25.2857 43.5523 25.2857 43V34.2541C25.2857 33.9172 25.1161 33.6029 24.8344 33.4181L16.5782 28ZM16.1429 25.8935L9 21.206V14H23.2857V21.206L16.1429 25.8935ZM16.1429 30.1065L23.2857 34.794V42H9V34.794L16.1429 30.1065Z" fill="black"/>
<path d="M17.0467 24.3993C16.4786 24.6871 15.8073 24.6871 15.2391 24.3993L12.6677 23.0967C11.9953 22.756 11.5715 22.0663 11.5715 21.3125V20.5714C11.5715 19.4669 12.4669 18.5714 13.5715 18.5714H18.7144C19.8189 18.5714 20.7144 19.4669 20.7144 20.5714V21.3125C20.7144 22.0663 20.2906 22.756 19.6182 23.0967L17.0467 24.3993Z" fill="black"/>
</svg>
