<svg width="48" height="48" viewBox="0 0 48 48" fill="none" xmlns="http://www.w3.org/2000/svg">
<path fill-rule="evenodd" clip-rule="evenodd" d="M26.6817 14.9927C25.2955 14.0681 23.6663 13.5754 22 13.5769C19.7705 13.5891 17.6359 14.4806 16.0601 16.0579C14.4843 17.6351 13.5947 19.7705 13.5846 22C13.5846 23.6663 14.0788 25.2951 15.0047 26.6804C15.9306 28.0657 17.2465 29.1453 18.7861 29.7826C20.3257 30.4199 22.0197 30.5863 23.6538 30.2607C25.2879 29.935 26.7887 29.132 27.9664 27.9533C29.1441 26.7745 29.9457 25.273 30.2699 23.6385C30.594 22.0041 30.4261 20.3103 29.7874 18.7713C29.1487 17.2323 28.0679 15.9173 26.6817 14.9927ZM16.4443 13.6853C18.0888 12.5865 20.0222 12 22 12C24.6522 12 27.1957 13.0536 29.0711 14.9289C30.9464 16.8043 32 19.3478 32 22C32 23.9778 31.4135 25.9112 30.3147 27.5557C29.2159 29.2002 27.6541 30.4819 25.8268 31.2388C23.9996 31.9957 21.9889 32.1937 20.0491 31.8078C18.1093 31.422 16.3275 30.4696 14.9289 29.0711C13.5304 27.6725 12.578 25.8907 12.1922 23.9509C11.8063 22.0111 12.0043 20.0004 12.7612 18.1732C13.5181 16.3459 14.7998 14.7841 16.4443 13.6853ZM30.248 28.8975L35.7823 34.3795C35.8519 34.4484 35.9069 34.5301 35.9444 34.6199C35.9818 34.7097 36.0009 34.8059 36.0005 34.903C36.0002 35.0001 35.9804 35.0961 35.9423 35.1857C35.9042 35.2752 35.8486 35.3565 35.7786 35.4249C35.7086 35.4933 35.6255 35.5475 35.5343 35.5843C35.443 35.6212 35.3452 35.64 35.2465 35.6396C35.1479 35.6393 35.0502 35.6198 34.9592 35.5823C34.8682 35.5449 34.7855 35.4901 34.716 35.4212L29.1816 29.9392L30.248 28.8975Z" fill="#10150F"/>
<path d="M24.2319 28.8455C24.2319 31.6425 21.903 33.9411 18.991 33.9411C16.079 33.9411 13.75 31.6425 13.75 28.8455C13.75 26.0486 16.079 23.75 18.991 23.75C21.903 23.75 24.2319 26.0486 24.2319 28.8455Z" fill="white" stroke="black" stroke-width="1.5"/>
<path d="M19.2593 30.1982H18.4419C18.4448 29.917 18.4697 29.687 18.5166 29.5083C18.5664 29.3267 18.647 29.1611 18.7583 29.0117C18.8696 28.8623 19.0176 28.6924 19.2021 28.502C19.3369 28.3643 19.46 28.2354 19.5713 28.1152C19.6855 27.9922 19.7778 27.8604 19.8481 27.7197C19.9185 27.5762 19.9536 27.4048 19.9536 27.2056C19.9536 27.0034 19.917 26.8291 19.8438 26.6826C19.7734 26.5361 19.668 26.4233 19.5273 26.3442C19.3896 26.2651 19.2183 26.2256 19.0132 26.2256C18.8433 26.2256 18.6821 26.2563 18.5298 26.3179C18.3774 26.3794 18.2544 26.4746 18.1606 26.6035C18.0669 26.7295 18.0186 26.895 18.0156 27.1001H17.2026C17.2085 26.769 17.2905 26.4849 17.4487 26.2476C17.6099 26.0103 17.8267 25.8286 18.0991 25.7026C18.3716 25.5767 18.6763 25.5137 19.0132 25.5137C19.3853 25.5137 19.7017 25.5811 19.9624 25.7158C20.2261 25.8506 20.4268 26.0439 20.5645 26.2959C20.7021 26.5449 20.771 26.8408 20.771 27.1836C20.771 27.4473 20.7168 27.6904 20.6084 27.9131C20.5029 28.1328 20.3667 28.3394 20.1997 28.5327C20.0327 28.7261 19.8555 28.9106 19.668 29.0864C19.5068 29.2358 19.3984 29.4043 19.3428 29.5918C19.2871 29.7793 19.2593 29.9814 19.2593 30.1982ZM18.4067 31.5913C18.4067 31.4595 18.4478 31.3481 18.5298 31.2573C18.6118 31.1665 18.7305 31.1211 18.8857 31.1211C19.0439 31.1211 19.1641 31.1665 19.2461 31.2573C19.3281 31.3481 19.3691 31.4595 19.3691 31.5913C19.3691 31.7173 19.3281 31.8257 19.2461 31.9165C19.1641 32.0073 19.0439 32.0527 18.8857 32.0527C18.7305 32.0527 18.6118 32.0073 18.5298 31.9165C18.4478 31.8257 18.4067 31.7173 18.4067 31.5913Z" fill="black"/>
</svg>
