<svg width="21" height="20" viewBox="0 0 21 20" fill="none" xmlns="http://www.w3.org/2000/svg">
<path fill-rule="evenodd" clip-rule="evenodd" d="M17.0162 13.4492C17.2148 13.0658 17.0181 12.6084 16.6185 12.4446C16.2132 12.2786 15.7545 12.4783 15.5422 12.8614C14.9561 13.9193 14.0744 14.7855 13.0003 15.3455C11.692 16.0276 10.1855 16.2097 8.75579 15.8585C7.3261 15.5074 6.06854 14.6464 5.2126 13.4327C4.35667 12.2191 3.95943 10.7336 4.09339 9.2475C4.22735 7.76138 4.88358 6.37368 5.94231 5.33764C7.00103 4.3016 8.39167 3.68632 9.86042 3.60407C11.3292 3.52182 12.7781 3.97809 13.9428 4.88962C14.6279 5.42579 15.1878 6.09844 15.5926 6.85907L14.5397 7.22253C14.3051 7.30351 14.2623 7.61889 14.4672 7.7571L17.0736 9.5155C17.2372 9.62591 17.4616 9.54846 17.5249 9.3597L18.5333 6.35349C18.6125 6.1172 18.389 5.89375 18.1544 5.97473L17.0973 6.33964C16.5818 5.28609 15.8345 4.35613 14.9029 3.62704C13.4396 2.4818 11.6191 1.90854 9.77379 2.01188C7.92845 2.11521 6.18126 2.88826 4.85107 4.18994C3.52089 5.49161 2.69641 7.23512 2.5281 9.10228C2.35979 10.9694 2.85888 12.8357 3.93427 14.3606C5.00967 15.8854 6.58967 16.9672 8.38593 17.4084C10.1822 17.8495 12.0749 17.6208 13.7187 16.7638C15.1332 16.0264 16.2821 14.8662 17.0162 13.4492Z" fill="#838383"/>
</svg>
