<svg width="24" height="24" viewBox="0 0 24 24" fill="none" xmlns="http://www.w3.org/2000/svg">
<path fill-rule="evenodd" clip-rule="evenodd" d="M14.6817 2.99273C13.2955 2.06811 11.6663 1.5754 10 1.57692C7.77052 1.58906 5.63591 2.48063 4.06013 4.05786C2.48434 5.63509 1.59472 7.7705 1.58462 10C1.58462 11.6663 2.07882 13.2951 3.0047 14.6804C3.93058 16.0657 5.24654 17.1453 6.7861 17.7826C8.32567 18.4199 10.0197 18.5863 11.6538 18.2607C13.2879 17.935 14.7887 17.132 15.9664 15.9533C17.1441 14.7745 17.9457 13.273 18.2699 11.6385C18.594 10.0041 18.4261 8.31027 17.7874 6.77129C17.1487 5.23231 16.0679 3.91734 14.6817 2.99273ZM4.4443 1.6853C6.08879 0.58649 8.02219 0 10 0C12.6522 0 15.1957 1.05357 17.0711 2.92893C18.9464 4.8043 20 7.34783 20 10C20 11.9778 19.4135 13.9112 18.3147 15.5557C17.2159 17.2002 15.6541 18.4819 13.8268 19.2388C11.9996 19.9957 9.98891 20.1937 8.0491 19.8078C6.10929 19.422 4.32746 18.4696 2.92894 17.0711C1.53041 15.6725 0.578004 13.8907 0.192152 11.9509C-0.193701 10.0111 0.00433299 8.00042 0.761209 6.17316C1.51809 4.3459 2.79981 2.78412 4.4443 1.6853ZM18.248 16.8975L23.7823 22.3795C23.8519 22.4484 23.9069 22.5301 23.9444 22.6199C23.9818 22.7097 24.0009 22.8059 24.0005 22.903C24.0002 23.0001 23.9804 23.0961 23.9423 23.1857C23.9042 23.2752 23.8486 23.3565 23.7786 23.4249C23.7086 23.4933 23.6255 23.5475 23.5343 23.5843C23.443 23.6212 23.3452 23.64 23.2465 23.6396C23.1479 23.6393 23.0502 23.6198 22.9592 23.5823C22.8682 23.5449 22.7855 23.4901 22.716 23.4212L17.1816 17.9392L18.248 16.8975Z" fill="#10150F"/>
</svg>
