<svg width="49" height="48" viewBox="0 0 49 48" fill="none" xmlns="http://www.w3.org/2000/svg">
<circle cx="24.4961" cy="24" r="18" fill="black"/>
<path fill-rule="evenodd" clip-rule="evenodd" d="M16.3961 30.7001V20.5001H32.5961V23.3778C33.302 23.6415 33.9449 24.0345 34.4961 24.5278V20.1001C34.4961 19.2717 33.8245 18.6001 32.9961 18.6001H15.9961C15.1677 18.6001 14.4961 19.2717 14.4961 20.1001V31.1001C14.4961 31.9285 15.1677 32.6001 15.9961 32.6001H25.6957C25.2718 32.0357 24.945 31.3941 24.7404 30.7001H16.3961Z" fill="white"/>
<path d="M21.7461 17C21.7461 16.3096 22.3057 15.75 22.9961 15.75H25.9961C26.6864 15.75 27.2461 16.3096 27.2461 17V19.25H21.7461V17Z" stroke="white" stroke-width="1.5"/>
<path d="M28.497 26.9096L30.7252 25.0014C30.7259 25.0009 30.7269 25.0013 30.7269 25.0022V26.449C30.7269 26.4496 30.7273 26.45 30.7279 26.45L34.2951 26.4615C34.2956 26.4615 34.2961 26.462 34.2961 26.4625V27.3581C34.2961 27.3587 34.2957 27.3591 34.2951 27.3591L30.7278 27.4167C30.7273 27.4167 30.7269 27.4171 30.7269 27.4177V28.8645C30.7269 28.8653 30.7258 28.8658 30.7252 28.8652L28.497 26.9111C28.4965 26.9107 28.4965 26.91 28.497 26.9096Z" fill="#0AA65B" stroke="#0AA65B" stroke-width="0.7"/>
<path d="M34.295 31.9571L32.0668 33.8653C32.0661 33.8658 32.0651 33.8654 32.0651 33.8645V32.4177C32.0651 32.4171 32.0647 32.4167 32.0641 32.4167L28.4969 32.4052C28.4963 32.4052 28.4959 32.4047 28.4959 32.4042V31.5086C28.4959 31.508 28.4963 31.5076 28.4969 31.5076L32.0641 31.45C32.0647 31.45 32.0651 31.4496 32.0651 31.449V30.0022C32.0651 30.0014 32.0661 30.0009 32.0668 30.0015L34.295 31.9556C34.2955 31.956 34.2955 31.9567 34.295 31.9571Z" fill="#0AA65B" stroke="#0AA65B" stroke-width="0.7"/>
</svg>
