<svg width="49" height="48" viewBox="0 0 49 48" fill="none" xmlns="http://www.w3.org/2000/svg">
<path d="M11.3613 19.0745C11.9151 17.3632 12.8251 15.7887 14.0313 14.4545C14.131 14.3443 14.2613 14.2662 14.4055 14.2301C14.5497 14.1941 14.7014 14.2017 14.8413 14.252L17.7183 15.281C17.9231 15.3541 18.1414 15.3819 18.358 15.3623C18.5746 15.3426 18.7843 15.2762 18.9727 15.1674C19.161 15.0587 19.3235 14.9103 19.4488 14.7326C19.5741 14.5548 19.6592 14.3519 19.6983 14.138L20.2473 11.129C20.2738 10.9825 20.3433 10.8472 20.447 10.7404C20.5506 10.6336 20.6837 10.56 20.8293 10.529C22.5871 10.1546 24.404 10.1546 26.1618 10.529C26.3071 10.5602 26.4399 10.6339 26.5433 10.7408C26.6466 10.8476 26.7159 10.9827 26.7423 11.129L27.2928 14.138C27.3319 14.3519 27.417 14.5548 27.5423 14.7326C27.6676 14.9103 27.8301 15.0587 28.0184 15.1674C28.2068 15.2762 28.4165 15.3426 28.6331 15.3623C28.8497 15.3819 29.068 15.3541 29.2728 15.281L32.1498 14.252C32.2898 14.2019 32.4416 14.1945 32.5858 14.2308C32.7301 14.2671 32.8602 14.3455 32.9598 14.456C34.1659 15.7898 35.0758 17.3638 35.6298 19.0745C35.6755 19.2158 35.6783 19.3675 35.6377 19.5104C35.5971 19.6532 35.515 19.7808 35.4018 19.877L33.0693 21.857C32.9036 21.9978 32.7705 22.173 32.6792 22.3703C32.5879 22.5677 32.5407 22.7825 32.5407 23C32.5407 23.2174 32.5879 23.4323 32.6792 23.6297C32.7705 23.827 32.9036 24.0022 33.0693 24.143L35.4018 26.123C35.515 26.2192 35.5971 26.3468 35.6377 26.4896C35.6783 26.6325 35.6755 26.7842 35.6298 26.9255C35.076 28.6368 34.166 30.2113 32.9598 31.5455C32.8601 31.6557 32.7298 31.7338 32.5856 31.7699C32.4414 31.8059 32.2897 31.7983 32.1498 31.748L29.2728 30.719C29.068 30.6459 28.8497 30.6181 28.6331 30.6377C28.4165 30.6574 28.2068 30.7238 28.0184 30.8326C27.8301 30.9413 27.6676 31.0897 27.5423 31.2674C27.417 31.4452 27.3319 31.6481 27.2928 31.862L26.7423 34.8725C26.7156 35.0185 26.6462 35.1533 26.5429 35.2598C26.4395 35.3664 26.3069 35.4399 26.1618 35.471C24.404 35.8455 22.5871 35.8455 20.8293 35.471C20.6837 35.44 20.5506 35.3664 20.447 35.2596C20.3433 35.1527 20.2738 35.0175 20.2473 34.871L19.6998 31.862C19.6607 31.6481 19.5756 31.4452 19.4503 31.2674C19.325 31.0897 19.1625 30.9413 18.9742 30.8326C18.7858 30.7238 18.5761 30.6574 18.3595 30.6377C18.1429 30.6181 17.9246 30.6459 17.7198 30.719L14.8413 31.748C14.7013 31.7981 14.5495 31.8055 14.4053 31.7692C14.261 31.7329 14.1309 31.6545 14.0313 31.544C12.8252 30.2103 11.9153 28.6362 11.3613 26.9255C11.3157 26.784 11.3132 26.6323 11.3541 26.4894C11.395 26.3465 11.4773 26.219 11.5908 26.123L13.9218 24.143C14.0875 24.0022 14.2206 23.827 14.3119 23.6297C14.4032 23.4323 14.4504 23.2174 14.4504 23C14.4504 22.7825 14.4032 22.5677 14.3119 22.3703C14.2206 22.173 14.0875 21.9978 13.9218 21.857L11.5908 19.877C11.4773 19.781 11.395 19.6535 11.3541 19.5106C11.3132 19.3677 11.3157 19.216 11.3613 19.0745ZM12.9528 19.0655L14.8938 20.7125C15.2257 20.9941 15.4924 21.3446 15.6752 21.7396C15.8581 22.1346 15.9528 22.5647 15.9528 23C15.9528 23.4353 15.8581 23.8654 15.6752 24.2604C15.4924 24.6554 15.2257 25.0059 14.8938 25.2875L12.9513 26.9345C13.3896 28.107 14.0208 29.198 14.8188 30.1625L17.2128 29.3075C17.6225 29.1612 18.0592 29.1058 18.4925 29.1451C18.9257 29.1844 19.3453 29.3175 19.722 29.5351C20.0987 29.7527 20.4236 30.0497 20.6741 30.4054C20.9246 30.7611 21.0948 31.167 21.1728 31.595L21.6303 34.097C22.8643 34.3027 24.1238 34.3027 25.3578 34.097L25.8153 31.592C25.893 31.1639 26.063 30.7578 26.3135 30.402C26.564 30.0462 26.8889 29.7492 27.2658 29.5317C27.6426 29.3142 28.0623 29.1813 28.4957 29.1423C28.929 29.1033 29.3657 29.1592 29.7753 29.306L32.1708 30.1625C32.9687 29.198 33.5999 28.107 34.0383 26.9345L32.0973 25.2875C31.7649 25.0062 31.4979 24.6558 31.3147 24.2607C31.1315 23.8657 31.0366 23.4355 31.0366 23C31.0366 22.5645 31.1315 22.1343 31.3147 21.7393C31.4979 21.3442 31.7649 20.9938 32.0973 20.7125L34.0383 19.0655C33.6 17.893 32.9688 16.802 32.1708 15.8375L29.7768 16.6925C29.3672 16.8388 28.9306 16.8942 28.4975 16.855C28.0643 16.8158 27.6448 16.6828 27.2681 16.4654C26.8914 16.2479 26.5665 15.9512 26.3159 15.5956C26.0653 15.2401 25.895 14.8344 25.8168 14.4065L25.3578 11.903C24.1238 11.6973 22.8643 11.6973 21.6303 11.903L21.1743 14.4065C21.0963 14.8347 20.9262 15.2408 20.6755 15.5966C20.4249 15.9524 20.0999 16.2495 19.723 16.4671C19.3461 16.6848 18.9263 16.8178 18.4929 16.857C18.0594 16.8961 17.6226 16.8405 17.2128 16.694L14.8188 15.8375C14.0208 16.802 13.3897 17.893 12.9513 19.0655H12.9528ZM19.7463 23C19.7463 22.0054 20.1414 21.0516 20.8447 20.3483C21.5479 19.6451 22.5017 19.25 23.4963 19.25C24.4909 19.25 25.4447 19.6451 26.148 20.3483C26.8512 21.0516 27.2463 22.0054 27.2463 23C27.2463 23.9946 26.8512 24.9484 26.148 25.6516C25.4447 26.3549 24.4909 26.75 23.4963 26.75C22.5017 26.75 21.5479 26.3549 20.8447 25.6516C20.1414 24.9484 19.7463 23.9946 19.7463 23ZM21.2463 23C21.2463 23.5967 21.4834 24.169 21.9053 24.591C22.3273 25.0129 22.8996 25.25 23.4963 25.25C24.093 25.25 24.6653 25.0129 25.0873 24.591C25.5093 24.169 25.7463 23.5967 25.7463 23C25.7463 22.4033 25.5093 21.831 25.0873 21.409C24.6653 20.9871 24.093 20.75 23.4963 20.75C22.8996 20.75 22.3273 20.9871 21.9053 21.409C21.4834 21.831 21.2463 22.4033 21.2463 23Z" fill="black"/>
</svg>
