<svg width="35" height="27" viewBox="0 0 35 27" fill="none" xmlns="http://www.w3.org/2000/svg">
<path fill-rule="evenodd" clip-rule="evenodd" d="M9.49609 2H29.4961C31.1529 2 32.4961 3.34315 32.4961 5V7.5H25.1211C23.05 7.5 21.3711 9.17893 21.3711 11.25C21.3711 13.3211 23.05 15 25.1211 15H32.4961V17.5C32.4961 19.1569 31.1529 20.5 29.4961 20.5H9.49609C7.83924 20.5 6.49609 19.1569 6.49609 17.5V5C6.49609 3.34315 7.83924 2 9.49609 2ZM34.4961 13.4V15V17.5C34.4961 20.2614 32.2575 22.5 29.4961 22.5H9.49609C6.73467 22.5 4.49609 20.2614 4.49609 17.5V5C4.49609 2.23858 6.73467 0 9.49609 0H29.4961C32.2575 0 34.4961 2.23858 34.4961 5V7.5V9.1V13.4ZM32.4961 9.1V13.4H25.1211C23.9337 13.4 22.9711 12.4374 22.9711 11.25C22.9711 10.0626 23.9337 9.1 25.1211 9.1H32.4961ZM25.5898 12.6562C26.3665 12.6562 26.9961 12.0267 26.9961 11.25C26.9961 10.4733 26.3665 9.84375 25.5898 9.84375C24.8132 9.84375 24.1836 10.4733 24.1836 11.25C24.1836 12.0267 24.8132 12.6562 25.5898 12.6562Z" fill="black"/>
<circle cx="8.49609" cy="19" r="8" fill="white"/>
<path d="M11.3426 15.0018L13.495 18.0757C13.4955 18.0763 13.495 18.0772 13.4942 18.0772H11.8619C11.8614 18.0772 11.8609 18.0777 11.8609 18.0782L11.8479 22.9989C11.8479 22.9994 11.8475 22.9999 11.8469 22.9999H10.8367C10.8361 22.9999 10.8357 22.9994 10.8357 22.9989L10.7708 18.0782C10.7708 18.0777 10.7704 18.0772 10.7698 18.0772H9.13757C9.13676 18.0772 9.13629 18.0763 9.13676 18.0757L11.341 15.0017C11.3414 15.0012 11.3422 15.0012 11.3426 15.0018Z" fill="#5FA425" stroke="#5FA425" stroke-width="0.7"/>
<path d="M5.64956 22.9981L3.4972 19.9242C3.49673 19.9235 3.49721 19.9226 3.49801 19.9226H5.13027C5.13082 19.9226 5.13127 19.9222 5.13127 19.9216L5.14424 15.001C5.14425 15.0004 5.14469 15 5.14524 15H6.15551C6.15606 15 6.1565 15.0004 6.15651 15.001L6.22137 19.9216C6.22138 19.9222 6.22183 19.9226 6.22237 19.9226H7.85462C7.85543 19.9226 7.8559 19.9235 7.85543 19.9242L5.6512 22.9981C5.65079 22.9987 5.64996 22.9987 5.64956 22.9981Z" fill="#5FA425" stroke="#5FA425" stroke-width="0.7"/>
</svg>
