<svg width="49" height="48" viewBox="0 0 49 48" fill="none" xmlns="http://www.w3.org/2000/svg">
<path fill-rule="evenodd" clip-rule="evenodd" d="M13.4961 11.9H28.0956C31.4645 11.9 34.1956 14.6311 34.1956 18V23.241H36.0956V18C36.0956 13.5817 32.5139 10 28.0956 10H13.4961C11.8392 10 10.4961 11.3431 10.4961 13V39C10.4961 40.6569 11.8392 42 13.4961 42H22.229V40.1H13.4961C12.8886 40.1 12.3961 39.6075 12.3961 39V13C12.3961 12.3925 12.8886 11.9 13.4961 11.9Z" fill="#0E1617"/>
<path fill-rule="evenodd" clip-rule="evenodd" d="M34.1947 23.3941C34.1947 23.9188 34.6201 24.3441 35.1447 24.3441C35.6694 24.3441 36.0947 23.9188 36.0947 23.3941V19.7769C36.0947 19.2522 35.6694 18.8269 35.1447 18.8269C34.6201 18.8269 34.1947 19.2522 34.1947 19.7769V23.3941ZM19.1785 40.098C18.6538 40.098 18.2285 40.5233 18.2285 41.048C18.2285 41.5727 18.6538 41.998 19.1785 41.998H22.6117C23.1364 41.998 23.5617 41.5727 23.5617 41.048C23.5617 40.5233 23.1364 40.098 22.6117 40.098H19.1785Z" fill="#0E1617"/>
<path fill-rule="evenodd" clip-rule="evenodd" d="M14.4961 18.85C14.4961 18.3806 14.8767 18 15.3461 18H29.6458C30.1152 18 30.4958 18.3806 30.4958 18.85C30.4958 19.3194 30.1152 19.7 29.6458 19.7H15.3461C14.8767 19.7 14.4961 19.3194 14.4961 18.85ZM14.4961 22.9886C14.4961 22.5192 14.8767 22.1386 15.3461 22.1386H27.6458C28.1153 22.1386 28.4958 22.5192 28.4958 22.9886C28.4958 23.4581 28.1153 23.8386 27.6458 23.8386H15.3461C14.8767 23.8386 14.4961 23.4581 14.4961 22.9886ZM15.3461 26.2756C14.8767 26.2756 14.4961 26.6562 14.4961 27.1256C14.4961 27.595 14.8767 27.9756 15.3461 27.9756H25.6459C26.1153 27.9756 26.4959 27.595 26.4959 27.1256C26.4959 26.6562 26.1153 26.2756 25.6459 26.2756H15.3461Z" fill="#0E1617"/>
<line x1="35.232" y1="29.4084" x2="35.232" y2="39.1429" stroke="#0E1617" stroke-width="1.3" stroke-linecap="round"/>
<path d="M33.3264 31.3846L35.4965 28.4682L37.6666 31.3846H33.3264Z" fill="#0E1617" stroke="#0E1617" stroke-width="1.3"/>
<line x1="30.1601" y1="39.4187" x2="30.1601" y2="29.6842" stroke="#0E1617" stroke-width="1.3" stroke-linecap="round"/>
<path d="M32.0662 37.4427L29.8961 40.359L27.7259 37.4427H32.0662Z" fill="#0E1617" stroke="#0E1617" stroke-width="1.3"/>
</svg>
