<svg width="48" height="48" viewBox="0 0 48 48" fill="none" xmlns="http://www.w3.org/2000/svg">
<circle cx="24" cy="24" r="19.25" stroke="#0E1617" stroke-width="1.5"/>
<path fill-rule="evenodd" clip-rule="evenodd" d="M25.5032 25.012C25.2095 25.004 24.9589 25.1 24.7516 25.3C24.5442 25.5 24.4406 25.7377 24.4406 26.013C24.4406 26.2877 24.5356 26.5167 24.7257 26.7L29.4946 31.3C29.5982 31.4 29.7106 31.471 29.8315 31.513C29.9525 31.5543 30.082 31.575 30.2203 31.575C30.3585 31.575 30.4881 31.5543 30.609 31.513C30.73 31.471 30.8423 31.4 30.946 31.3L35.689 26.725C35.8963 26.525 36 26.2877 36 26.013C36 25.7377 35.8963 25.5 35.689 25.3C35.4816 25.1 35.2356 25 34.9508 25C34.6654 25 34.419 25.1 34.2117 25.3L31.257 28.15V17C31.257 16.7167 31.1578 16.479 30.9595 16.287C30.7604 16.0957 30.514 16 30.2203 16C29.9265 16 29.6805 16.0957 29.4821 16.287C29.2831 16.479 29.1836 16.7167 29.1836 17V28.15L26.2548 25.325C26.0475 25.125 25.7969 25.0207 25.5032 25.012ZM22.4968 22.988C22.7905 22.996 23.0411 22.9 23.2484 22.7C23.4558 22.5 23.5594 22.2623 23.5594 21.987C23.5594 21.7123 23.4644 21.4833 23.2743 21.3L18.5054 16.7C18.4018 16.6 18.2894 16.529 18.1685 16.487C18.0475 16.4457 17.918 16.425 17.7797 16.425C17.6415 16.425 17.5119 16.4457 17.391 16.487C17.27 16.529 17.1577 16.6 17.054 16.7L12.311 21.275C12.1037 21.475 12 21.7123 12 21.987C12 22.2623 12.1037 22.5 12.311 22.7C12.5184 22.9 12.7644 23 13.0492 23C13.3346 23 13.581 22.9 13.7883 22.7L16.743 19.85V31C16.743 31.2833 16.8422 31.521 17.0405 31.713C17.2396 31.9043 17.486 32 17.7797 32C18.0735 32 18.3195 31.9043 18.5179 31.713C18.7169 31.521 18.8164 31.2833 18.8164 31V19.85L21.7452 22.675C21.9525 22.875 22.2031 22.9793 22.4968 22.988Z" fill="#0E1617"/>
</svg>
