<svg width="26" height="25" viewBox="0 0 26 25" fill="none" xmlns="http://www.w3.org/2000/svg">
<path d="M6.33333 6.33333V1.8C6.33333 1.58783 6.41762 1.38434 6.56765 1.23431C6.71768 1.08429 6.92116 1 7.13333 1H18.8667C18.9717 1 19.0758 1.02069 19.1728 1.0609C19.2699 1.1011 19.3581 1.16003 19.4324 1.23431C19.5066 1.3086 19.5656 1.39679 19.6058 1.49385C19.646 1.59091 19.6667 1.69494 19.6667 1.8V6.33333M10.3333 1V6.33333M13 1V6.33333M22.3333 23.6667H3.66667C2.95942 23.6667 2.28115 23.3857 1.78105 22.8856C1.28095 22.3855 1 21.7072 1 21V9C1 8.29276 1.28095 7.61448 1.78105 7.11438C2.28115 6.61428 2.95942 6.33333 3.66667 6.33333H22.3333C23.0406 6.33333 23.7189 6.61428 24.219 7.11438C24.719 7.61448 25 8.29276 25 9V21C25 21.7072 24.719 22.3855 24.219 22.8856C23.7189 23.3857 23.0406 23.6667 22.3333 23.6667Z" stroke="#10150F" stroke-width="1.5"/>
</svg>
