<svg width="37" height="36" viewBox="0 0 37 36" fill="none" xmlns="http://www.w3.org/2000/svg">
<circle cx="18.4961" cy="18" r="18" fill="black"/>
<path d="M26.7327 9H11.7654C11.098 9 10.458 9.26512 9.98605 9.73702C9.51414 10.2089 9.24902 10.849 9.24902 11.5164V22.4575C9.24902 23.1249 9.51414 23.7649 9.98605 24.2368C10.458 24.7087 11.098 24.9738 11.7654 24.9738H26.7327C27.4 24.9738 28.0401 24.7087 28.512 24.2368C28.9839 23.7649 29.249 23.1249 29.249 22.4575V11.5164C29.249 10.849 28.9839 10.2089 28.512 9.73702C28.0401 9.26512 27.4 9 26.7327 9ZM28.2425 18.995H21.7805C21.2466 18.995 20.7345 18.7829 20.357 18.4053C19.9795 18.0278 19.7674 17.5158 19.7674 16.9819C19.7674 16.448 19.9795 15.9359 20.357 15.5584C20.7345 15.1809 21.2466 14.9688 21.7805 14.9688H28.2425V18.995ZM21.7805 13.9623C20.9796 13.9623 20.2116 14.2804 19.6453 14.8467C19.079 15.413 18.7609 16.181 18.7609 16.9819C18.7609 17.7827 19.079 18.5508 19.6453 19.1171C20.2116 19.6834 20.9796 20.0015 21.7805 20.0015H28.2425V22.4575C28.2425 22.8579 28.0834 23.2419 27.8003 23.5251C27.5171 23.8082 27.1331 23.9673 26.7327 23.9673H11.7654C11.365 23.9673 10.9809 23.8082 10.6978 23.5251C10.4146 23.2419 10.2556 22.8579 10.2556 22.4575V11.5164C10.2556 11.1159 10.4146 10.7319 10.6978 10.4488C10.9809 10.1656 11.365 10.0065 11.7654 10.0065H26.7327C27.1331 10.0065 27.5171 10.1656 27.8003 10.4488C28.0834 10.7319 28.2425 11.1159 28.2425 11.5164V13.9623H21.7805Z" fill="white"/>
<path d="M21.7849 17.9894C22.3408 17.9894 22.7914 17.5387 22.7914 16.9828C22.7914 16.4269 22.3408 15.9763 21.7849 15.9763C21.229 15.9763 20.7783 16.4269 20.7783 16.9828C20.7783 17.5387 21.229 17.9894 21.7849 17.9894Z" fill="white"/>
<circle cx="11.4961" cy="23" r="6" fill="black"/>
<path d="M13.7734 20.4213L15.4947 22.4314C15.4952 22.432 15.4948 22.433 15.4939 22.433H14.1889C14.1883 22.433 14.1879 22.4335 14.1879 22.434L14.1775 25.6522C14.1775 25.6528 14.1771 25.6532 14.1765 25.6532H13.3687C13.3681 25.6532 13.3677 25.6528 13.3677 25.6522L13.3158 22.434C13.3158 22.4335 13.3153 22.433 13.3148 22.433H12.0098C12.0089 22.433 12.0085 22.432 12.009 22.4314L13.7718 20.4213C13.7722 20.4209 13.773 20.4209 13.7734 20.4213Z" fill="#00A9BB" stroke="#00A9BB" stroke-width="0.7"/>
<path d="M9.21884 25.6519L7.49751 23.6418C7.49695 23.6411 7.49741 23.6401 7.49827 23.6401H8.80329C8.80384 23.6401 8.80429 23.6397 8.80429 23.6391L8.81467 20.421C8.81467 20.4204 8.81512 20.42 8.81567 20.42H9.62352C9.62407 20.42 9.62451 20.4204 9.62452 20.4209L9.6764 23.6392C9.67641 23.6397 9.67685 23.6401 9.6774 23.6401H10.9824C10.9833 23.6401 10.9837 23.6411 10.9832 23.6418L9.22035 25.6519C9.21995 25.6523 9.21923 25.6523 9.21884 25.6519Z" fill="#00A9BB" stroke="#00A9BB" stroke-width="0.7"/>
</svg>
