<svg width="31" height="23" viewBox="0 0 31 23" fill="none" xmlns="http://www.w3.org/2000/svg">
<path fill-rule="evenodd" clip-rule="evenodd" d="M5.49609 2H25.4961C27.1529 2 28.4961 3.34315 28.4961 5V7.5H21.1211C19.05 7.5 17.3711 9.17893 17.3711 11.25C17.3711 13.3211 19.05 15 21.1211 15H28.4961V17.5C28.4961 19.1569 27.1529 20.5 25.4961 20.5H5.49609C3.83924 20.5 2.49609 19.1569 2.49609 17.5V5C2.49609 3.34315 3.83924 2 5.49609 2ZM30.4961 13.4V15V17.5C30.4961 20.2614 28.2575 22.5 25.4961 22.5H5.49609C2.73467 22.5 0.496094 20.2614 0.496094 17.5V5C0.496094 2.23858 2.73467 0 5.49609 0H25.4961C28.2575 0 30.4961 2.23858 30.4961 5V7.5V9.1V13.4ZM28.4961 9.1V13.4H21.1211C19.9337 13.4 18.9711 12.4374 18.9711 11.25C18.9711 10.0626 19.9337 9.1 21.1211 9.1H28.4961ZM21.5898 12.6562C22.3665 12.6562 22.9961 12.0267 22.9961 11.25C22.9961 10.4733 22.3665 9.84375 21.5898 9.84375C20.8132 9.84375 20.1836 10.4733 20.1836 11.25C20.1836 12.0267 20.8132 12.6562 21.5898 12.6562Z" fill="black"/>
</svg>
