<svg width="48" height="48" viewBox="0 0 48 48" fill="none" xmlns="http://www.w3.org/2000/svg">
<path d="M25.703 10.8583C24.9219 9.58994 23.0781 9.58994 22.297 10.8583L10.2309 30.4512L11.0824 30.9756L10.2309 30.4512C9.41026 31.7838 10.3689 33.5 11.9339 33.5H36.0661C37.6311 33.5 38.5897 31.7838 37.7691 30.4512L25.703 10.8583Z" stroke="#10150F" stroke-width="2" stroke-linejoin="round"/>
<path d="M24 17C24.2652 17 24.5196 17.1054 24.7071 17.2929C24.8946 17.4804 25 17.7348 25 18V24C25 24.2652 24.8946 24.5196 24.7071 24.7071C24.5196 24.8946 24.2652 25 24 25C23.7348 25 23.4804 24.8946 23.2929 24.7071C23.1054 24.5196 23 24.2652 23 24V18C23 17.7348 23.1054 17.4804 23.2929 17.2929C23.4804 17.1054 23.7348 17 24 17ZM24 27C23.7348 27 23.4804 27.1054 23.2929 27.2929C23.1054 27.4804 23 27.7348 23 28C23 28.2652 23.1054 28.5196 23.2929 28.7071C23.4804 28.8946 23.7348 29 24 29C24.2652 29 24.5196 28.8946 24.7071 28.7071C24.8946 28.5196 25 28.2652 25 28C25 27.7348 24.8946 27.4804 24.7071 27.2929C24.5196 27.1054 24.2652 27 24 27Z" fill="#10150F"/>
</svg>
